<svg width="50" height="44" viewBox="0 0 50 44" fill="none" xmlns="http://www.w3.org/2000/svg">
<path d="M14.0672 17.2857C12.3389 17.2857 10.9426 18.6902 10.9426 20.4286C10.9426 22.167 12.3389 23.5714 14.0672 23.5714C15.7955 23.5714 17.1918 22.167 17.1918 20.4286C17.1918 18.6902 15.7955 17.2857 14.0672 17.2857ZM25.0032 17.2857C23.275 17.2857 21.8786 18.6902 21.8786 20.4286C21.8786 22.167 23.275 23.5714 25.0032 23.5714C26.7315 23.5714 28.1278 22.167 28.1278 20.4286C28.1278 18.6902 26.7315 17.2857 25.0032 17.2857ZM35.9393 17.2857C34.211 17.2857 32.8147 18.6902 32.8147 20.4286C32.8147 22.167 34.211 23.5714 35.9393 23.5714C37.6676 23.5714 39.0639 22.167 39.0639 20.4286C39.0639 18.6902 37.6676 17.2857 35.9393 17.2857ZM25.0032 0C11.1964 0 0.00648043 9.14375 0.00648043 20.4286C0.00648043 25.1036 1.94959 29.3857 5.17183 32.833C3.71694 36.7027 0.689986 39.983 0.641164 40.0223C-0.00328393 40.7098 -0.179042 41.7116 0.192003 42.5759C0.563049 43.4402 1.41255 44 2.34993 44C8.35501 44 13.0907 41.4759 15.9322 39.4527C18.7541 40.3464 21.8005 40.8571 25.0032 40.8571C38.81 40.8571 50 31.7134 50 20.4286C50 9.14375 38.81 0 25.0032 0ZM25.0032 36.1429C22.3962 36.1429 19.8184 35.7402 17.348 34.9545L15.1315 34.2473L13.2274 35.6027C11.8311 36.5946 9.91731 37.7045 7.61292 38.4509C8.32572 37.2625 9.01898 35.9268 9.55602 34.5027L10.591 31.7429L8.57959 29.6018C6.81224 27.7062 4.69337 24.5732 4.69337 20.4286C4.69337 11.7661 13.8035 4.71429 25.0032 4.71429C36.203 4.71429 45.3131 11.7661 45.3131 20.4286C45.3131 29.0911 36.203 36.1429 25.0032 36.1429Z" fill="white"/>
</svg>
