<svg width="37" height="37" viewBox="0 0 37 37" fill="none" xmlns="http://www.w3.org/2000/svg">
<path d="M24.4714 12.6667H18.707M18.707 12.6667H15.8249C14.2331 12.6667 12.9427 13.9725 12.9427 15.5833C12.9427 17.1941 14.2331 18.5 15.8249 18.5H18.707M18.707 12.6667V8.77778M18.707 12.6667V18.5M12.9427 24.3333H18.707M18.707 24.3333H21.5892C23.1809 24.3333 24.4714 23.0274 24.4714 21.4167C24.4714 19.8059 23.1809 18.5 21.5892 18.5H18.707M18.707 24.3333V28.2222M18.707 24.3333V18.5M36 18.5C36 28.1651 28.2577 36 18.707 36C9.15639 36 1.41406 28.1651 1.41406 18.5C1.41406 8.83502 9.15639 1 18.707 1C28.2577 1 36 8.83502 36 18.5Z" stroke="white" stroke-width="2" stroke-linecap="round" stroke-linejoin="round"/>
</svg>
