<svg width="40" height="41" viewBox="0 0 40 41" fill="none" xmlns="http://www.w3.org/2000/svg">
<path fill-rule="evenodd" clip-rule="evenodd" d="M11.7544 1.06201C13.8878 0.965328 14.5678 0.943359 20 0.943359C25.4333 0.943359 26.1122 0.966425 28.2444 1.06201C30.3744 1.1576 31.8289 1.49269 33.1011 1.98157C34.4355 2.47832 35.6442 3.25663 36.6433 4.26236C37.6605 5.25011 38.4478 6.44538 38.95 7.76482C39.4444 9.02276 39.7822 10.4609 39.88 12.5659C39.9778 14.6753 40 15.3476 40 20.7189C40 26.0901 39.9767 26.7625 39.88 28.872C39.7833 30.9768 39.4444 32.415 38.95 33.6729C38.4389 34.9727 37.7544 36.0767 36.6433 37.1754C35.6444 38.1812 34.4355 38.9597 33.1011 39.4562C31.8289 39.945 30.3744 40.279 28.2456 40.3758C26.1122 40.4725 25.4322 40.4944 20 40.4944C14.5678 40.4944 13.8878 40.4714 11.7544 40.3758C9.62556 40.2801 8.17111 39.945 6.89889 39.4562C5.58444 38.9509 4.46778 38.274 3.35667 37.1754C2.33935 36.1877 1.55215 34.9923 1.05 33.6729C0.555564 32.415 0.217782 30.9768 0.12 28.872C0.0222182 26.7625 0 26.0912 0 20.7189C0 15.3465 0.0233272 14.6753 0.12 12.567C0.216673 10.4609 0.555564 9.02276 1.05 7.76482C1.55238 6.44547 2.33953 5.25025 3.35667 4.26236C4.35562 3.25645 5.56446 2.47808 6.89889 1.98157C8.17111 1.49269 9.62556 1.1587 11.7544 1.06201ZM28.0822 4.62161C25.9733 4.52712 25.34 4.50624 20 4.50624C14.66 4.50624 14.0267 4.52712 11.9178 4.62161C9.96778 4.7095 8.90889 5.03139 8.20444 5.30277C7.27111 5.66092 6.60444 6.08938 5.90444 6.78153C5.20556 7.47367 4.77111 8.13286 4.40889 9.05571C4.13444 9.75226 3.80889 10.7993 3.72 12.7274C3.62444 14.8126 3.60333 15.4388 3.60333 20.7189C3.60333 25.999 3.62444 26.6251 3.72 28.7104C3.80889 30.6385 4.13444 31.6855 4.40889 32.3821C4.72929 33.2411 5.24035 34.0181 5.90444 34.6563C6.54971 35.3129 7.33566 35.8182 8.20444 36.135C8.90889 36.4065 9.96778 36.7283 11.9178 36.8162C14.0267 36.9107 14.6589 36.9316 20 36.9316C25.3411 36.9316 25.9733 36.9107 28.0822 36.8162C30.0322 36.7283 31.0911 36.4065 31.7956 36.135C32.7289 35.7769 33.3956 35.3485 34.0956 34.6563C34.7596 34.0183 35.2707 33.2411 35.5911 32.3821C35.8656 31.6855 36.1911 30.6385 36.28 28.7104C36.3756 26.6251 36.3967 25.999 36.3967 20.7189C36.3967 15.4388 36.3756 14.8126 36.28 12.7274C36.1911 10.7993 35.8656 9.75226 35.5911 9.05571C35.2289 8.13286 34.7956 7.47367 34.0956 6.78153C33.3956 6.0905 32.7289 5.66092 31.7956 5.30277C31.0911 5.03139 30.0322 4.7095 28.0822 4.62161ZM17.4464 26.815C18.256 27.1467 19.1236 27.3173 20 27.3173C21.77 27.3173 23.4673 26.6221 24.7187 25.3847C25.9704 24.1472 26.6735 22.4688 26.6735 20.7189C26.6735 18.9689 25.9704 17.2905 24.7187 16.0531C23.4673 14.8156 21.77 14.1204 20 14.1204C19.1236 14.1204 18.256 14.2911 17.4464 14.6227C16.6365 14.9543 15.901 15.4404 15.2813 16.0531C14.6616 16.6658 14.1701 17.3932 13.8347 18.1937C13.4993 18.9943 13.3267 19.8524 13.3267 20.7189C13.3267 21.5854 13.4993 22.4435 13.8347 23.244C14.1701 24.0446 14.6616 24.772 15.2813 25.3847C15.901 25.9973 16.6365 26.4835 17.4464 26.815ZM12.731 13.5314C14.6589 11.6252 17.2736 10.5542 20 10.5542C22.7265 10.5542 25.3413 11.6252 27.2691 13.5314C29.1969 15.4376 30.28 18.0231 30.28 20.7189C30.28 23.4147 29.1969 26 27.2691 27.9064C25.3413 29.8126 22.7265 30.8835 20 30.8835C17.2736 30.8835 14.6589 29.8126 12.731 27.9064C10.8031 26 9.72006 23.4147 9.72006 20.7189C9.72006 18.0231 10.8031 15.4376 12.731 13.5314ZM32.5595 12.0687C33.0151 11.6181 33.2711 11.0069 33.2711 10.3697C33.2711 9.73243 33.0151 9.1213 32.5595 8.6707C32.1036 8.22011 31.4856 7.96696 30.8411 7.96696C30.1967 7.96696 29.5785 8.22011 29.1229 8.6707C28.6671 9.1213 28.4111 9.73243 28.4111 10.3697C28.4111 11.0069 28.6671 11.6181 29.1229 12.0687C29.5785 12.5193 30.1967 12.7724 30.8411 12.7724C31.4856 12.7724 32.1036 12.5193 32.5595 12.0687Z" fill="white"/>
</svg>
