<svg width="50" height="50" viewBox="0 0 50 50" fill="none" xmlns="http://www.w3.org/2000/svg">
<path d="M45 15H5V10H45V15ZM40 0H10V5H40V0ZM50 25V45C50 46.3261 49.4732 47.5979 48.5355 48.5355C47.5979 49.4732 46.3261 50 45 50H5C3.67512 49.9961 2.40561 49.4681 1.46877 48.5312C0.531933 47.5944 0.00389778 46.3249 0 45V25C0.00387154 23.6751 0.531899 22.4056 1.46874 21.4687C2.40559 20.5319 3.67511 20.0039 5 20H45C46.3249 20.0039 47.5944 20.5319 48.5313 21.4687C49.4681 22.4056 49.9961 23.6751 50 25ZM29.8184 37.605L35.625 32.6393L27.9779 31.9995L25 25L22.0221 31.9995L14.375 32.6393L20.1816 37.605L18.4334 45L25 41.0695L31.5666 45L29.8184 37.605Z" fill="white"/>
</svg>
