<svg width="50" height="50" viewBox="0 0 50 50" fill="none" xmlns="http://www.w3.org/2000/svg">
<path d="M36.6413 32.2445H34.3256L33.5049 31.4531C37.0223 27.3495 38.8396 21.751 37.843 15.8008C36.4654 7.65215 29.6651 1.14498 21.4579 0.148391C9.0591 -1.37581 -1.37581 9.0591 0.148391 21.4579C1.14498 29.6651 7.65215 36.4654 15.8008 37.843C21.751 38.8396 27.3495 37.0223 31.4531 33.5049L32.2445 34.3256V36.6413L44.7019 49.0987C45.9037 50.3004 47.8676 50.3004 49.0694 49.0987C50.2711 47.8969 50.2711 45.933 49.0694 44.7312L36.6413 32.2445ZM19.0543 32.2445C11.7558 32.2445 5.86414 26.3529 5.86414 19.0543C5.86414 11.7558 11.7558 5.86414 19.0543 5.86414C26.3529 5.86414 32.2445 11.7558 32.2445 19.0543C32.2445 26.3529 26.3529 32.2445 19.0543 32.2445Z" fill="white"/>
</svg>
