<svg width="50" height="50" viewBox="0 0 50 50" fill="none" xmlns="http://www.w3.org/2000/svg">
<path d="M18.75 20.3125C18.75 18.5869 17.3506 17.1875 15.625 17.1875H14.0625C10.6104 17.1875 7.8125 19.9854 7.8125 23.4375V28.125C7.8125 31.5771 10.6104 34.375 14.0625 34.375H15.625C17.3506 34.375 18.75 32.9756 18.75 31.25V20.3125ZM35.9375 34.375C39.3896 34.375 42.1875 31.5771 42.1875 28.125V23.4375C42.1875 19.9854 39.3896 17.1875 35.9375 17.1875H34.375C32.6494 17.1875 31.25 18.5869 31.25 20.3125V31.25C31.25 32.9756 32.6494 34.375 34.375 34.375H35.9375ZM25 0C11.0527 0 0.447266 11.6045 0 25V26.5625C0 27.4258 0.699219 28.125 1.5625 28.125H3.125C3.98828 28.125 4.6875 27.4258 4.6875 26.5625V25C4.6875 13.7998 13.7998 4.6875 25 4.6875C36.2002 4.6875 45.3125 13.7998 45.3125 25H45.3008C45.3086 25.2373 45.3125 41.1836 45.3125 41.1836C45.3125 43.4639 43.4639 45.3125 41.1836 45.3125H31.25C31.25 42.7236 29.1514 40.625 26.5625 40.625H23.4375C20.8486 40.625 18.75 42.7236 18.75 45.3125C18.75 47.9014 20.8486 50 23.4375 50H41.1836C46.0527 50 50 46.0527 50 41.1836V25C49.5527 11.6045 38.9473 0 25 0Z" fill="white"/>
</svg>
