<svg width="49" height="49" viewBox="0 0 49 49" fill="none" xmlns="http://www.w3.org/2000/svg">
<path d="M16.4971 40.3738C19.5161 40.4737 22.5247 39.9742 25.3451 38.9047C28.1656 37.8353 30.7406 36.2178 32.918 34.1476C35.0954 32.0774 36.831 29.5967 38.0223 26.852C39.2136 24.1072 39.8363 21.1543 39.8538 18.1675C41.2373 16.4746 42.2646 14.5253 42.8754 12.4343C42.921 12.2691 42.9173 12.0943 42.8648 11.9311C42.8123 11.7679 42.7132 11.6232 42.5795 11.5145C42.4457 11.4057 42.283 11.3374 42.1109 11.3179C41.9388 11.2985 41.7647 11.3286 41.6096 11.4047C40.8858 11.7492 40.0709 11.8605 39.2797 11.7229C38.4886 11.5852 37.761 11.2057 37.1996 10.6376C36.4829 9.86152 35.6159 9.23561 34.65 8.79693C33.6842 8.35825 32.6391 8.11572 31.5767 8.08372C30.5144 8.05172 29.4563 8.23089 28.4652 8.61062C27.4742 8.99035 26.5703 9.56292 25.8071 10.2944C24.7622 11.295 23.9968 12.5459 23.5854 13.9255C23.174 15.3051 23.1305 16.7664 23.4592 18.1675C16.6196 18.5713 11.9238 15.3615 8.16709 10.9606C8.05423 10.8342 7.9066 10.7431 7.74222 10.6983C7.57785 10.6535 7.40384 10.657 7.24145 10.7084C7.07906 10.7598 6.93531 10.8568 6.82777 10.9876C6.72022 11.1184 6.65353 11.2774 6.63584 11.4451C5.92017 15.3704 6.43643 19.4182 8.11527 23.045C9.79411 26.6717 12.5551 29.7036 16.0275 31.7335C13.6993 34.3737 10.4297 36.0227 6.90125 36.3363C6.71222 36.3673 6.53772 36.4559 6.40217 36.5899C6.26662 36.7238 6.17682 36.8963 6.14531 37.0831C6.11381 37.27 6.1422 37.462 6.22649 37.6321C6.31078 37.8023 6.44677 37.9421 6.61542 38.032C9.68511 39.5489 13.0655 40.35 16.4971 40.3738Z" fill="white"/>
</svg>
