<svg width="40" height="45" viewBox="0 0 40 45" fill="none" xmlns="http://www.w3.org/2000/svg">
<path d="M19.6875 22.5C25.9014 22.5 30.9375 17.4639 30.9375 11.25C30.9375 5.03613 25.9014 0 19.6875 0C13.4736 0 8.4375 5.03613 8.4375 11.25C8.4375 17.4639 13.4736 22.5 19.6875 22.5ZM27.5625 25.3125H26.0947C24.1436 26.209 21.9727 26.7188 19.6875 26.7188C17.4023 26.7188 15.2402 26.209 13.2803 25.3125H11.8125C5.29102 25.3125 0 30.6035 0 37.125V40.7812C0 43.1104 1.88965 45 4.21875 45H35.1562C37.4854 45 39.375 43.1104 39.375 40.7812V37.125C39.375 30.6035 34.084 25.3125 27.5625 25.3125Z" fill="white"/>
</svg>
