<svg width="371" height="312" viewBox="0 0 371 312" fill="none" xmlns="http://www.w3.org/2000/svg">
<g filter="url(#filter0_d_687_2803)">
<g filter="url(#filter1_d_687_2803)">
<rect x="17" y="15" width="329" height="270" rx="10" fill="url(#paint0_linear_687_2803)"/>
<path d="M84.6662 164.912V156.57H86.0483C86.5189 156.232 86.9498 155.754 87.3409 155.138C87.732 154.515 88.0668 153.656 88.3452 152.562C88.6236 151.462 88.8224 150.024 88.9418 148.247L89.5185 139.636H102.991V156.57H105.219V164.892H101.082V160H88.8026V164.912H84.6662ZM91.0199 156.57H98.8551V143.186H93.3963L93.0781 148.247C92.992 149.593 92.8494 150.786 92.6506 151.827C92.4583 152.867 92.223 153.779 91.9446 154.561C91.6728 155.337 91.3646 156.006 91.0199 156.57ZM114.657 160.298C113.113 160.298 111.777 159.97 110.65 159.314C109.53 158.651 108.665 157.73 108.055 156.55C107.445 155.363 107.14 153.988 107.14 152.423C107.14 150.846 107.445 149.467 108.055 148.287C108.665 147.1 109.53 146.179 110.65 145.523C111.777 144.86 113.113 144.528 114.657 144.528C116.202 144.528 117.534 144.86 118.654 145.523C119.781 146.179 120.65 147.1 121.26 148.287C121.869 149.467 122.174 150.846 122.174 152.423C122.174 153.988 121.869 155.363 121.26 156.55C120.65 157.73 119.781 158.651 118.654 159.314C117.534 159.97 116.202 160.298 114.657 160.298ZM114.677 157.017C115.38 157.017 115.967 156.818 116.437 156.42C116.908 156.016 117.262 155.466 117.501 154.77C117.746 154.074 117.869 153.282 117.869 152.393C117.869 151.505 117.746 150.713 117.501 150.017C117.262 149.321 116.908 148.771 116.437 148.366C115.967 147.962 115.38 147.76 114.677 147.76C113.968 147.76 113.371 147.962 112.887 148.366C112.41 148.771 112.049 149.321 111.804 150.017C111.565 150.713 111.446 151.505 111.446 152.393C111.446 153.282 111.565 154.074 111.804 154.77C112.049 155.466 112.41 156.016 112.887 156.42C113.371 156.818 113.968 157.017 114.677 157.017ZM123.735 164.474V156.639H124.909C125.247 156.427 125.519 156.089 125.724 155.625C125.936 155.161 126.109 154.614 126.241 153.984C126.38 153.355 126.486 152.675 126.559 151.946C126.639 151.21 126.708 150.468 126.768 149.719L127.166 144.727H138.879V156.639H141.245V164.474H137.208V160H127.872V164.474H123.735ZM129.125 156.639H134.882V147.989H130.765L130.606 149.719C130.493 151.349 130.331 152.735 130.119 153.875C129.907 155.009 129.575 155.93 129.125 156.639ZM148.069 160.288C147.094 160.288 146.226 160.119 145.464 159.781C144.701 159.437 144.098 158.929 143.654 158.26C143.217 157.584 142.998 156.742 142.998 155.734C142.998 154.886 143.154 154.173 143.465 153.597C143.777 153.02 144.201 152.556 144.738 152.205C145.275 151.853 145.885 151.588 146.567 151.409C147.257 151.23 147.979 151.104 148.735 151.031C149.623 150.938 150.339 150.852 150.883 150.773C151.426 150.687 151.821 150.561 152.066 150.395C152.311 150.229 152.434 149.984 152.434 149.659V149.599C152.434 148.97 152.235 148.482 151.837 148.138C151.446 147.793 150.889 147.621 150.167 147.621C149.405 147.621 148.798 147.79 148.347 148.128C147.897 148.459 147.598 148.877 147.452 149.381L143.535 149.062C143.734 148.134 144.125 147.332 144.708 146.656C145.291 145.973 146.044 145.45 146.965 145.085C147.893 144.714 148.967 144.528 150.187 144.528C151.035 144.528 151.847 144.628 152.623 144.827C153.405 145.026 154.098 145.334 154.701 145.751C155.311 146.169 155.791 146.706 156.143 147.362C156.494 148.012 156.67 148.791 156.67 149.699V160H152.653V157.882H152.533C152.288 158.359 151.96 158.78 151.549 159.145C151.138 159.503 150.644 159.785 150.067 159.99C149.491 160.189 148.825 160.288 148.069 160.288ZM149.282 157.365C149.905 157.365 150.455 157.242 150.933 156.997C151.41 156.745 151.784 156.407 152.056 155.983C152.328 155.559 152.464 155.078 152.464 154.541V152.92C152.331 153.007 152.149 153.086 151.917 153.159C151.692 153.225 151.436 153.288 151.151 153.348C150.866 153.401 150.581 153.451 150.296 153.497C150.011 153.537 149.753 153.573 149.521 153.607C149.023 153.679 148.589 153.795 148.218 153.955C147.847 154.114 147.558 154.329 147.353 154.601C147.147 154.866 147.045 155.197 147.045 155.595C147.045 156.172 147.254 156.613 147.671 156.918C148.095 157.216 148.632 157.365 149.282 157.365ZM158.422 148.058V144.727H172.263V148.058H167.341V160H163.304V148.058H158.422ZM178.878 154.412L184.376 144.727H188.553V160H184.516V150.286L179.037 160H174.831V144.727H178.878V154.412ZM197.633 148.058V144.727H211.474V148.058H206.552V160H202.515V148.058H197.633ZM220.396 160.298C218.851 160.298 217.515 159.97 216.388 159.314C215.268 158.651 214.403 157.73 213.793 156.55C213.183 155.363 212.879 153.988 212.879 152.423C212.879 150.846 213.183 149.467 213.793 148.287C214.403 147.1 215.268 146.179 216.388 145.523C217.515 144.86 218.851 144.528 220.396 144.528C221.94 144.528 223.272 144.86 224.393 145.523C225.52 146.179 226.388 147.1 226.998 148.287C227.608 149.467 227.913 150.846 227.913 152.423C227.913 153.988 227.608 155.363 226.998 156.55C226.388 157.73 225.52 158.651 224.393 159.314C223.272 159.97 221.94 160.298 220.396 160.298ZM220.415 157.017C221.118 157.017 221.705 156.818 222.175 156.42C222.646 156.016 223.001 155.466 223.239 154.77C223.485 154.074 223.607 153.282 223.607 152.393C223.607 151.505 223.485 150.713 223.239 150.017C223.001 149.321 222.646 148.771 222.175 148.366C221.705 147.962 221.118 147.76 220.415 147.76C219.706 147.76 219.11 147.962 218.626 148.366C218.148 148.771 217.787 149.321 217.542 150.017C217.303 150.713 217.184 151.505 217.184 152.393C217.184 153.282 217.303 154.074 217.542 154.77C217.787 155.466 218.148 156.016 218.626 156.42C219.11 156.818 219.706 157.017 220.415 157.017ZM230.667 160V144.727H237.18C239.062 144.727 240.55 145.085 241.644 145.801C242.738 146.517 243.285 147.535 243.285 148.854C243.285 149.682 242.977 150.372 242.36 150.922C241.744 151.472 240.888 151.843 239.795 152.036C240.71 152.102 241.488 152.311 242.131 152.662C242.781 153.007 243.275 153.454 243.613 154.004C243.958 154.554 244.13 155.164 244.13 155.834C244.13 156.702 243.898 157.448 243.434 158.071C242.977 158.694 242.304 159.171 241.415 159.503C240.534 159.834 239.457 160 238.184 160H230.667ZM234.614 156.828H238.184C238.774 156.828 239.235 156.689 239.566 156.411C239.904 156.125 240.073 155.738 240.073 155.247C240.073 154.704 239.904 154.276 239.566 153.964C239.235 153.653 238.774 153.497 238.184 153.497H234.614V156.828ZM234.614 151.011H237.269C237.693 151.011 238.055 150.952 238.353 150.832C238.658 150.706 238.89 150.527 239.049 150.295C239.215 150.063 239.298 149.788 239.298 149.47C239.298 149 239.109 148.632 238.731 148.366C238.353 148.101 237.836 147.969 237.18 147.969H234.614V151.011ZM251.155 160.288C250.18 160.288 249.312 160.119 248.55 159.781C247.787 159.437 247.184 158.929 246.74 158.26C246.303 157.584 246.084 156.742 246.084 155.734C246.084 154.886 246.24 154.173 246.551 153.597C246.863 153.02 247.287 152.556 247.824 152.205C248.361 151.853 248.971 151.588 249.653 151.409C250.343 151.23 251.065 151.104 251.821 151.031C252.709 150.938 253.425 150.852 253.969 150.773C254.512 150.687 254.907 150.561 255.152 150.395C255.397 150.229 255.52 149.984 255.52 149.659V149.599C255.52 148.97 255.321 148.482 254.923 148.138C254.532 147.793 253.975 147.621 253.253 147.621C252.491 147.621 251.884 147.79 251.433 148.128C250.982 148.459 250.684 148.877 250.538 149.381L246.621 149.062C246.82 148.134 247.211 147.332 247.794 146.656C248.377 145.973 249.13 145.45 250.051 145.085C250.979 144.714 252.053 144.528 253.273 144.528C254.121 144.528 254.933 144.628 255.709 144.827C256.491 145.026 257.184 145.334 257.787 145.751C258.397 146.169 258.877 146.706 259.229 147.362C259.58 148.012 259.756 148.791 259.756 149.699V160H255.739V157.882H255.619C255.374 158.359 255.046 158.78 254.635 159.145C254.224 159.503 253.73 159.785 253.153 159.99C252.577 160.189 251.911 160.288 251.155 160.288ZM252.368 157.365C252.991 157.365 253.541 157.242 254.018 156.997C254.496 156.745 254.87 156.407 255.142 155.983C255.414 155.559 255.55 155.078 255.55 154.541V152.92C255.417 153.007 255.235 153.086 255.003 153.159C254.777 153.225 254.522 153.288 254.237 153.348C253.952 153.401 253.667 153.451 253.382 153.497C253.097 153.537 252.839 153.573 252.607 153.607C252.109 153.679 251.675 153.795 251.304 153.955C250.933 154.114 250.644 154.329 250.439 154.601C250.233 154.866 250.131 155.197 250.131 155.595C250.131 156.172 250.339 156.613 250.757 156.918C251.181 157.216 251.718 157.365 252.368 157.365ZM263.042 165.727V144.727H267.218V147.293H267.407C267.593 146.882 267.861 146.464 268.212 146.04C268.57 145.609 269.034 145.251 269.604 144.966C270.181 144.674 270.897 144.528 271.752 144.528C272.866 144.528 273.893 144.82 274.835 145.403C275.776 145.98 276.528 146.852 277.092 148.018C277.655 149.179 277.937 150.634 277.937 152.384C277.937 154.087 277.662 155.526 277.112 156.699C276.568 157.866 275.826 158.75 274.884 159.354C273.95 159.95 272.902 160.249 271.742 160.249C270.92 160.249 270.221 160.113 269.644 159.841C269.074 159.569 268.607 159.228 268.242 158.817C267.878 158.399 267.599 157.978 267.407 157.554H267.278V165.727H263.042ZM267.188 152.364C267.188 153.272 267.314 154.064 267.566 154.74C267.818 155.416 268.183 155.943 268.66 156.321C269.137 156.692 269.717 156.878 270.4 156.878C271.089 156.878 271.673 156.689 272.15 156.311C272.627 155.927 272.988 155.396 273.234 154.72C273.486 154.037 273.612 153.252 273.612 152.364C273.612 151.482 273.489 150.706 273.244 150.037C272.998 149.367 272.637 148.844 272.16 148.466C271.683 148.088 271.096 147.899 270.4 147.899C269.71 147.899 269.127 148.081 268.65 148.446C268.179 148.811 267.818 149.328 267.566 149.997C267.314 150.667 267.188 151.455 267.188 152.364Z" fill="white"/>
<path d="M290.925 64.416C288.754 60.9589 284.234 59.7638 280.636 61.6971L266.879 69.0905C263.193 71.0711 261.73 75.5382 263.52 79.2944C263.565 79.4105 263.621 79.5255 263.689 79.6521L269.242 89.9839C269.926 91.2565 271.106 92.223 272.478 92.6346C273.854 93.0497 275.372 92.8952 276.644 92.2113C278.61 91.1548 279.057 89.0335 279.489 86.9824C279.647 86.2287 279.81 85.4496 280.049 84.7257C280.208 84.2395 281.087 83.0208 281.611 82.5546C281.914 82.2872 283.347 81.5189 283.73 81.414C284.411 81.2325 285.913 81.1735 286.405 81.3078C287.142 81.5097 287.881 81.8038 288.597 82.0873C290.547 82.8586 292.563 83.6565 294.529 82.6C295.802 81.9161 296.768 80.7354 297.18 79.3634C297.595 77.9879 297.44 76.4698 296.757 75.1973L291.212 64.8792C291.141 64.7485 291.073 64.6345 291 64.5318C290.977 64.4948 290.951 64.4571 290.925 64.416ZM294.005 76.6759C294.299 77.2221 294.366 77.8721 294.188 78.4622C294.011 79.0502 293.597 79.555 293.05 79.8485C292.363 80.2182 291.151 79.7382 289.747 79.1822C288.991 78.8844 288.133 78.5443 287.233 78.2955C286.034 77.9668 283.916 78.1312 282.924 78.3967C282.28 78.5708 281.536 78.9442 281.151 79.1512C280.766 79.3582 280.043 79.7729 279.542 80.2161C278.775 80.8941 277.47 82.5691 277.083 83.7524C276.792 84.6393 276.602 85.5407 276.434 86.3367C276.122 87.8147 275.854 89.0902 275.166 89.4599C274.62 89.7534 273.97 89.8207 273.38 89.6432C272.792 89.4663 272.287 89.0514 271.993 88.5052L266.452 78.2241C266.428 78.1465 266.398 78.0706 266.362 77.9975C265.257 75.7424 266.133 73.0374 268.357 71.8419L282.115 64.4486C284.271 63.2901 286.979 64.0069 288.226 65.9874C288.27 66.07 288.321 66.1488 288.328 66.1451C288.375 66.2332 288.396 66.2808 288.46 66.3579L294.005 76.6759Z" fill="white"/>
<path d="M285.914 74.8168C286.674 74.4085 286.959 73.4616 286.55 72.7018C286.142 71.942 285.195 71.657 284.435 72.0654C283.676 72.4737 283.391 73.4206 283.799 74.1804C284.207 74.9402 285.154 75.2252 285.914 74.8168Z" fill="white"/>
<path d="M287.187 70.5883C287.947 70.18 288.232 69.2331 287.824 68.4733C287.416 67.7134 286.469 67.4285 285.709 67.8368C284.949 68.2452 284.664 69.1921 285.072 69.9519C285.481 70.7117 286.428 70.9966 287.187 70.5883Z" fill="white"/>
<path d="M282.957 69.3149C283.717 68.9066 284.002 67.9596 283.593 67.1998C283.185 66.44 282.238 66.1551 281.478 66.5634C280.718 66.9717 280.434 67.9187 280.842 68.6785C281.25 69.4383 282.197 69.7232 282.957 69.3149Z" fill="white"/>
<path d="M281.684 73.5454C282.444 73.137 282.729 72.1901 282.321 71.4303C281.913 70.6705 280.966 70.3855 280.206 70.7939C279.446 71.2022 279.161 72.1491 279.569 72.9089C279.978 73.6687 280.925 73.9537 281.684 73.5454Z" fill="white"/>
<path d="M274.17 79.3583C275.689 78.5417 276.259 76.6477 275.443 75.1281C274.626 73.6085 272.732 73.0387 271.212 73.8553C269.693 74.672 269.123 76.5659 269.94 78.0855C270.756 79.6051 272.65 80.1749 274.17 79.3583Z" fill="white"/>
<path d="M334.145 150.04C336.624 146.796 336.161 142.143 333.091 139.45L321.351 129.15C318.205 126.391 313.509 126.584 310.617 129.575C310.524 129.657 310.436 129.75 310.341 129.859L302.606 138.676C301.653 139.762 301.161 141.206 301.255 142.635C301.348 144.069 302.024 145.437 303.11 146.39C304.787 147.862 306.931 147.538 309.003 147.224C309.765 147.109 310.552 146.989 311.314 146.959C311.825 146.938 313.274 147.335 313.894 147.663C314.251 147.853 315.472 148.926 315.704 149.249C316.112 149.823 316.693 151.209 316.74 151.718C316.808 152.478 316.792 153.274 316.777 154.044C316.737 156.14 316.695 158.308 318.372 159.78C319.458 160.732 320.903 161.225 322.332 161.13C323.766 161.037 325.134 160.362 326.087 159.276L333.811 150.47C333.909 150.359 333.992 150.255 334.063 150.15C334.089 150.116 334.116 150.078 334.145 150.04ZM323.738 157.216C323.33 157.682 322.744 157.972 322.129 158.012C321.517 158.052 320.898 157.841 320.432 157.432C319.845 156.917 319.871 155.613 319.901 154.104C319.915 153.292 319.933 152.369 319.851 151.439C319.739 150.2 318.844 148.274 318.249 147.438C317.86 146.895 317.25 146.329 316.921 146.04C316.592 145.752 315.951 145.221 315.361 144.906C314.457 144.425 312.431 143.788 311.187 143.84C310.254 143.878 309.344 144.016 308.539 144.137C307.046 144.362 305.757 144.557 305.17 144.042C304.704 143.633 304.413 143.047 304.373 142.433C304.333 141.82 304.545 141.202 304.954 140.736L312.645 131.947C312.71 131.897 312.77 131.842 312.826 131.783C314.552 129.958 317.392 129.833 319.291 131.498L331.031 141.798C332.871 143.412 333.147 146.2 331.728 148.061C331.666 148.131 331.611 148.207 331.616 148.212C331.551 148.287 331.513 148.323 331.463 148.41L323.738 157.216Z" fill="white"/>
<path d="M322.647 148.986C323.296 149.554 324.282 149.49 324.851 148.841C325.42 148.193 325.356 147.206 324.707 146.637C324.059 146.069 323.072 146.133 322.503 146.781C321.934 147.43 321.999 148.417 322.647 148.986Z" fill="white"/>
<path d="M327.055 148.698C327.704 149.267 328.691 149.203 329.26 148.554C329.828 147.906 329.764 146.919 329.115 146.35C328.467 145.781 327.48 145.846 326.911 146.494C326.343 147.143 326.407 148.13 327.055 148.698Z" fill="white"/>
<path d="M326.767 144.29C327.416 144.859 328.403 144.795 328.971 144.146C329.54 143.498 329.476 142.511 328.827 141.942C328.179 141.373 327.192 141.438 326.623 142.086C326.054 142.735 326.119 143.721 326.767 144.29Z" fill="white"/>
<path d="M322.359 144.579C323.008 145.148 323.994 145.084 324.563 144.435C325.132 143.787 325.068 142.8 324.419 142.231C323.771 141.662 322.784 141.727 322.215 142.375C321.646 143.024 321.711 144.01 322.359 144.579Z" fill="white"/>
<path d="M314.285 139.573C315.582 140.71 317.555 140.581 318.693 139.284C319.831 137.988 319.702 136.014 318.405 134.876C317.108 133.739 315.134 133.868 313.997 135.165C312.859 136.461 312.988 138.435 314.285 139.573Z" fill="white"/>
<path d="M86.9253 38.416C84.7537 34.9589 80.2337 33.7638 76.6361 35.6971L62.8787 43.0905C59.1931 45.0711 57.7302 49.5382 59.5201 53.2944C59.5647 53.4105 59.6212 53.5255 59.6893 53.6521L65.2416 63.9839C65.9255 65.2565 67.1063 66.223 68.4782 66.6346C69.8538 67.0497 71.3718 66.8952 72.6444 66.2113C74.6103 65.1548 75.0572 63.0335 75.4887 60.9824C75.6474 60.2287 75.8103 59.4496 76.0489 58.7257C76.2079 58.2395 77.0866 57.0208 77.611 56.5546C77.914 56.2872 79.3469 55.5189 79.7302 55.414C80.4111 55.2325 81.9131 55.1735 82.4055 55.3078C83.1417 55.5097 83.8812 55.8038 84.5975 56.0873C86.5474 56.8586 88.5631 57.6565 90.5291 56.6C91.8016 55.9161 92.7682 54.7354 93.1798 53.3634C93.5949 51.9879 93.4404 50.4698 92.7565 49.1973L87.2115 38.8792C87.1413 38.7485 87.0729 38.6345 87 38.5318C86.9766 38.4948 86.951 38.4571 86.9253 38.416ZM90.005 50.6759C90.2985 51.2221 90.3659 51.8721 90.1884 52.4622C90.0114 53.0502 89.5966 53.555 89.0504 53.8485C88.3625 54.2182 87.1507 53.7382 85.7472 53.1822C84.9915 52.8844 84.1331 52.5443 83.2335 52.2955C82.0338 51.9668 79.9165 52.1312 78.9243 52.3967C78.2803 52.5708 77.536 52.9442 77.1507 53.1512C76.7655 53.3582 76.0434 53.7729 75.5421 54.2161C74.7753 54.8941 73.4698 56.5691 73.0826 57.7524C72.7915 58.6393 72.6022 59.5407 72.4342 60.3367C72.1221 61.8147 71.8536 63.0902 71.1657 63.4599C70.6196 63.7534 69.9696 63.8207 69.3795 63.6432C68.7915 63.4663 68.2866 63.0514 67.9931 62.5052L62.452 52.2241C62.4281 52.1465 62.3979 52.0706 62.3622 51.9975C61.2566 49.7424 62.1328 47.0374 64.3574 45.8419L78.1148 38.4486C80.2706 37.2901 82.9785 38.0069 84.2255 39.9874C84.2699 40.07 84.3211 40.1488 84.328 40.1451C84.3753 40.2332 84.3956 40.2808 84.46 40.3579L90.005 50.6759Z" fill="white"/>
<path d="M81.914 48.8168C82.6738 48.4085 82.9587 47.4616 82.5504 46.7018C82.1421 45.942 81.1951 45.657 80.4353 46.0654C79.6755 46.4737 79.3906 47.4206 79.7989 48.1804C80.2072 48.9402 81.1542 49.2252 81.914 48.8168Z" fill="white"/>
<path d="M83.1874 44.5883C83.9472 44.18 84.2321 43.2331 83.8238 42.4733C83.4155 41.7134 82.4686 41.4285 81.7088 41.8368C80.9489 42.2452 80.664 43.1921 81.0723 43.9519C81.4807 44.7117 82.4276 44.9966 83.1874 44.5883Z" fill="white"/>
<path d="M78.9569 43.3149C79.7167 42.9066 80.0017 41.9596 79.5934 41.1998C79.185 40.44 78.2381 40.1551 77.4783 40.5634C76.7185 40.9717 76.4335 41.9187 76.8419 42.6785C77.2502 43.4383 78.1971 43.7232 78.9569 43.3149Z" fill="white"/>
<path d="M77.6845 47.5454C78.4443 47.137 78.7292 46.1901 78.3209 45.4303C77.9126 44.6705 76.9656 44.3855 76.2058 44.7939C75.446 45.2022 75.1611 46.1491 75.5694 46.9089C75.9777 47.6687 76.9247 47.9537 77.6845 47.5454Z" fill="white"/>
<path d="M70.1698 53.3583C71.6894 52.5417 72.2592 50.6477 71.4426 49.1281C70.6259 47.6085 68.732 47.0387 67.2124 47.8553C65.6928 48.672 65.123 50.5659 65.9396 52.0855C66.7562 53.6051 68.6501 54.1749 70.1698 53.3583Z" fill="white"/>
<path d="M67.5034 99.6774C65.4933 96.4776 61.3097 95.3714 57.9798 97.1609L45.2459 104.004C41.8344 105.837 40.4804 109.972 42.1371 113.449C42.1784 113.556 42.2307 113.663 42.2937 113.78L47.433 123.343C48.066 124.521 49.1589 125.416 50.4288 125.797C51.702 126.181 53.1071 126.038 54.285 125.405C56.1047 124.427 56.5183 122.463 56.9176 120.565C57.0646 119.867 57.2154 119.146 57.4362 118.476C57.5834 118.026 58.3967 116.898 58.882 116.467C59.1626 116.219 60.4888 115.508 60.8436 115.411C61.4738 115.243 62.8641 115.188 63.3199 115.313C64.0013 115.499 64.6858 115.772 65.3488 116.034C67.1536 116.748 69.0194 117.487 70.8391 116.509C72.0169 115.876 72.9116 114.783 73.2926 113.513C73.6768 112.24 73.5338 110.835 72.9008 109.657L67.7683 100.106C67.7033 99.9852 67.6401 99.8797 67.5726 99.7847C67.5509 99.7504 67.5272 99.7155 67.5034 99.6774ZM70.354 111.025C70.6257 111.531 70.688 112.132 70.5237 112.679C70.3599 113.223 69.9759 113.69 69.4704 113.962C68.8337 114.304 67.712 113.86 66.413 113.345C65.7134 113.069 64.919 112.755 64.0862 112.524C62.9758 112.22 61.016 112.372 60.0977 112.618C59.5016 112.779 58.8126 113.125 58.4561 113.316C58.0995 113.508 57.4311 113.892 56.9671 114.302C56.2574 114.93 55.0489 116.48 54.6906 117.575C54.4211 118.396 54.2459 119.231 54.0904 119.967C53.8015 121.335 53.553 122.516 52.9163 122.858C52.4108 123.13 51.8092 123.192 51.263 123.028C50.7187 122.864 50.2514 122.48 49.9798 121.974L44.8509 112.458C44.8287 112.386 44.8008 112.316 44.7678 112.249C43.7445 110.161 44.5554 107.657 46.6145 106.551L59.3484 99.7077C61.3438 98.6353 63.8502 99.2988 65.0045 101.132C65.0455 101.208 65.093 101.281 65.0993 101.278C65.1431 101.359 65.1619 101.404 65.2216 101.475L70.354 111.025Z" fill="white"/>
<path d="M62.8657 109.304C63.5689 108.926 63.8327 108.049 63.4547 107.346C63.0768 106.643 62.2003 106.379 61.497 106.757C60.7937 107.135 60.53 108.012 60.908 108.715C61.2859 109.418 62.1624 109.682 62.8657 109.304Z" fill="white"/>
<path d="M64.0424 105.39C64.7457 105.012 65.0094 104.135 64.6315 103.432C64.2536 102.729 63.3771 102.465 62.6738 102.843C61.9705 103.221 61.7068 104.097 62.0847 104.801C62.4627 105.504 63.3392 105.768 64.0424 105.39Z" fill="white"/>
<path d="M60.1284 104.212C60.8316 103.834 61.0954 102.958 60.7174 102.254C60.3395 101.551 59.463 101.287 58.7597 101.665C58.0564 102.043 57.7927 102.92 58.1707 103.623C58.5486 104.326 59.4251 104.59 60.1284 104.212Z" fill="white"/>
<path d="M58.9497 108.128C59.6529 107.75 59.9167 106.874 59.5387 106.17C59.1608 105.467 58.2843 105.203 57.581 105.581C56.8777 105.959 56.614 106.836 56.9919 107.539C57.3699 108.242 58.2464 108.506 58.9497 108.128Z" fill="white"/>
<path d="M51.994 113.508C53.4006 112.752 53.9281 110.999 53.1722 109.593C52.4163 108.186 50.6633 107.659 49.2567 108.415C47.8502 109.17 47.3227 110.923 48.0786 112.33C48.8345 113.737 50.5875 114.264 51.994 113.508Z" fill="white"/>
<path d="M146.526 213.969C143.735 209.527 137.926 207.991 133.303 210.475L115.625 219.976C110.888 222.521 109.009 228.262 111.309 233.089C111.366 233.238 111.439 233.386 111.526 233.548L118.661 246.825C119.54 248.46 121.057 249.702 122.82 250.231C124.588 250.765 126.539 250.566 128.174 249.688C130.7 248.33 131.274 245.604 131.829 242.968C132.033 242 132.242 240.998 132.549 240.068C132.753 239.443 133.882 237.877 134.556 237.278C134.946 236.935 136.787 235.947 137.28 235.812C138.154 235.579 140.085 235.503 140.717 235.676C141.663 235.935 142.614 236.313 143.534 236.678C146.04 237.669 148.63 238.694 151.156 237.337C152.792 236.458 154.034 234.94 154.563 233.177C155.096 231.41 154.898 229.459 154.019 227.824L146.893 214.565C146.803 214.397 146.715 214.25 146.621 214.118C146.591 214.071 146.558 214.022 146.526 213.969ZM150.483 229.724C150.86 230.426 150.947 231.261 150.719 232.019C150.491 232.775 149.958 233.424 149.256 233.801C148.372 234.276 146.815 233.659 145.012 232.944C144.04 232.562 142.937 232.125 141.781 231.805C140.24 231.383 137.519 231.594 136.244 231.935C135.416 232.159 134.46 232.639 133.965 232.905C133.47 233.171 132.542 233.704 131.898 234.273C130.912 235.144 129.235 237.297 128.737 238.817C128.363 239.957 128.12 241.115 127.904 242.138C127.503 244.038 127.158 245.677 126.274 246.152C125.572 246.529 124.737 246.615 123.978 246.387C123.223 246.16 122.574 245.627 122.197 244.925L115.076 231.713C115.046 231.614 115.007 231.516 114.961 231.422C113.54 228.524 114.666 225.048 117.525 223.512L135.204 214.011C137.974 212.522 141.454 213.444 143.056 215.989C143.113 216.095 143.179 216.196 143.188 216.191C143.249 216.304 143.275 216.366 143.357 216.465L150.483 229.724Z" fill="white"/>
<path d="M140.087 227.336C141.063 226.811 141.43 225.594 140.905 224.618C140.38 223.641 139.163 223.275 138.187 223.8C137.21 224.325 136.844 225.542 137.369 226.518C137.894 227.494 139.111 227.86 140.087 227.336Z" fill="white"/>
<path d="M141.721 221.9C142.697 221.375 143.063 220.159 142.539 219.182C142.014 218.206 140.797 217.84 139.821 218.364C138.844 218.889 138.478 220.106 139.003 221.082C139.528 222.059 140.744 222.425 141.721 221.9Z" fill="white"/>
<path d="M136.287 220.265C137.264 219.741 137.63 218.524 137.105 217.547C136.58 216.571 135.363 216.205 134.387 216.73C133.411 217.254 133.045 218.471 133.569 219.448C134.094 220.424 135.311 220.79 136.287 220.265Z" fill="white"/>
<path d="M134.65 225.701C135.627 225.176 135.993 223.959 135.468 222.983C134.944 222.007 133.727 221.64 132.75 222.165C131.774 222.69 131.408 223.907 131.932 224.883C132.457 225.859 133.674 226.226 134.65 225.701Z" fill="white"/>
<path d="M124.994 233.171C126.947 232.122 127.679 229.688 126.63 227.735C125.58 225.783 123.147 225.05 121.194 226.1C119.241 227.149 118.509 229.583 119.558 231.536C120.608 233.489 123.042 234.221 124.994 233.171Z" fill="white"/>
<path d="M74.8644 201.311C75.8416 197.292 73.5166 193.164 69.5705 191.916L54.4805 187.145C50.4379 185.867 46.1594 187.96 44.6952 191.914C44.6424 192.029 44.5988 192.151 44.5549 192.29L40.9719 203.622C40.5306 205.018 40.6626 206.559 41.3328 207.846C42.0031 209.139 43.1878 210.132 44.5836 210.574C46.74 211.255 48.5967 210.081 50.3915 208.946C51.0512 208.529 51.7322 208.097 52.4267 207.758C52.8922 207.53 54.3983 207.308 55.1074 207.359C55.5158 207.391 57.0862 207.889 57.4332 208.093C58.046 208.459 59.15 209.509 59.4003 209.962C59.7737 210.639 60.0826 211.384 60.3826 212.105C61.1999 214.066 62.0442 216.094 64.2006 216.776C65.5964 217.217 67.137 217.085 68.4245 216.415C69.7169 215.745 70.7106 214.56 71.1519 213.164L74.7301 201.847C74.7754 201.703 74.8099 201.573 74.833 201.448C74.8434 201.404 74.8527 201.359 74.8644 201.311ZM68.1339 212.21C67.9445 212.809 67.5199 213.317 66.9658 213.605C66.4137 213.892 65.7538 213.947 65.1548 213.758C64.4003 213.519 63.8928 212.3 63.3053 210.887C62.9877 210.128 62.6284 209.264 62.1735 208.435C61.5648 207.331 59.9495 205.909 59.0558 205.376C58.4743 205.031 57.6772 204.754 57.2546 204.621C56.8321 204.487 56.0207 204.255 55.3447 204.204C54.3104 204.126 52.1712 204.361 51.0381 204.916C50.1882 205.331 49.3996 205.83 48.7027 206.271C47.4085 207.088 46.2923 207.794 45.5378 207.556C44.9387 207.366 44.4306 206.942 44.1427 206.387C43.8558 205.835 43.8005 205.176 43.9899 204.576L47.544 193.288C47.5834 193.216 47.6173 193.14 47.6451 193.063C48.5024 190.666 51.0863 189.392 53.5264 190.163L68.6164 194.934C70.981 195.682 72.3733 198.155 71.8155 200.46C71.7869 200.551 71.7658 200.644 71.7733 200.646C71.7428 200.743 71.7225 200.791 71.7121 200.892L68.1339 212.21Z" fill="white"/>
<path d="M63.7697 205.019C64.6031 205.282 65.4923 204.82 65.7558 203.987C66.0192 203.153 65.5572 202.264 64.7238 202.001C63.8904 201.737 63.0012 202.199 62.7378 203.032C62.4743 203.866 62.9363 204.755 63.7697 205.019Z" fill="white"/>
<path d="M67.7384 202.956C68.5718 203.22 69.461 202.758 69.7245 201.924C69.988 201.091 69.526 200.202 68.6926 199.938C67.8592 199.675 66.97 200.137 66.7065 200.97C66.443 201.803 66.905 202.693 67.7384 202.956Z" fill="white"/>
<path d="M65.6759 198.985C66.5093 199.249 67.3985 198.787 67.662 197.953C67.9255 197.12 67.4635 196.231 66.6301 195.967C65.7967 195.704 64.9075 196.166 64.644 196.999C64.3805 197.833 64.8425 198.722 65.6759 198.985Z" fill="white"/>
<path d="M61.7042 201.048C62.5376 201.311 63.4268 200.849 63.6903 200.016C63.9538 199.183 63.4918 198.293 62.6584 198.03C61.825 197.766 60.9358 198.228 60.6723 199.062C60.4088 199.895 60.8708 200.784 61.7042 201.048Z" fill="white"/>
<path d="M52.1731 199.695C53.8399 200.222 55.6183 199.298 56.1453 197.631C56.6723 195.965 55.7483 194.186 54.0815 193.659C52.4147 193.132 50.6363 194.056 50.1093 195.723C49.5823 197.39 50.5063 199.168 52.1731 199.695Z" fill="white"/>
<path d="M198.672 247.323C199.173 245.333 198.036 243.276 196.084 242.641L188.618 240.214C186.618 239.563 184.487 240.584 183.745 242.54C183.718 242.596 183.696 242.657 183.673 242.726L181.85 248.333C181.626 249.023 181.685 249.788 182.012 250.429C182.34 251.073 182.923 251.571 183.614 251.795C184.681 252.142 185.607 251.567 186.501 251.011C186.83 250.807 187.17 250.596 187.516 250.431C187.748 250.319 188.496 250.215 188.847 250.244C189.05 250.261 189.827 250.514 189.998 250.617C190.3 250.801 190.844 251.326 190.966 251.552C191.149 251.889 191.299 252.26 191.445 252.619C191.842 253.595 192.253 254.604 193.32 254.951C194.01 255.176 194.775 255.117 195.416 254.789C196.06 254.462 196.558 253.878 196.783 253.188L198.603 247.588C198.626 247.517 198.644 247.453 198.656 247.391C198.661 247.369 198.666 247.347 198.672 247.323ZM195.289 252.702C195.193 252.999 194.98 253.249 194.704 253.39C194.429 253.53 194.102 253.554 193.805 253.458C193.432 253.337 193.185 252.73 192.899 252.027C192.745 251.649 192.57 251.219 192.348 250.806C192.05 250.256 191.255 249.544 190.814 249.276C190.527 249.102 190.132 248.962 189.923 248.894C189.714 248.826 189.313 248.708 188.978 248.679C188.465 248.637 187.403 248.744 186.838 249.015C186.415 249.218 186.022 249.462 185.674 249.678C185.029 250.078 184.473 250.424 184.099 250.302C183.803 250.206 183.553 249.993 183.412 249.717C183.272 249.442 183.247 249.115 183.344 248.818L185.152 243.233C185.172 243.197 185.189 243.16 185.203 243.121C185.638 241.936 186.925 241.314 188.132 241.707L195.598 244.135C196.768 244.515 197.449 245.748 197.163 246.889C197.148 246.934 197.138 246.98 197.141 246.981C197.126 247.029 197.116 247.052 197.11 247.103L195.289 252.702Z" fill="white"/>
<path d="M193.153 249.117C193.565 249.251 194.008 249.025 194.142 248.613C194.276 248.201 194.051 247.758 193.638 247.624C193.226 247.49 192.783 247.715 192.649 248.127C192.515 248.54 192.74 248.983 193.153 249.117Z" fill="white"/>
<path d="M195.131 248.109C195.544 248.243 195.987 248.018 196.121 247.605C196.255 247.193 196.029 246.75 195.617 246.616C195.204 246.482 194.761 246.707 194.627 247.12C194.493 247.532 194.719 247.975 195.131 248.109Z" fill="white"/>
<path d="M194.123 246.132C194.536 246.267 194.979 246.041 195.113 245.629C195.247 245.216 195.021 244.773 194.609 244.639C194.197 244.505 193.754 244.731 193.62 245.143C193.485 245.555 193.711 245.998 194.123 246.132Z" fill="white"/>
<path d="M192.145 247.14C192.557 247.274 193 247.049 193.134 246.636C193.268 246.224 193.043 245.781 192.63 245.647C192.218 245.513 191.775 245.739 191.641 246.151C191.507 246.563 191.733 247.006 192.145 247.14Z" fill="white"/>
<path d="M187.423 246.431C188.247 246.699 189.133 246.248 189.401 245.423C189.669 244.599 189.218 243.713 188.394 243.444C187.569 243.176 186.683 243.628 186.415 244.452C186.147 245.277 186.598 246.163 187.423 246.431Z" fill="white"/>
<path d="M186.155 90.0196C188.375 84.6291 186.018 78.383 180.788 75.8025L160.789 65.9342C155.431 63.2904 149.024 65.292 146.14 70.4865C146.042 70.6346 145.956 70.7957 145.865 70.9796L138.454 85.9991C137.541 87.8491 137.396 90.0231 138.054 91.9595C138.712 93.9029 140.15 95.54 142 96.4528C144.857 97.863 147.694 96.6243 150.437 95.4259C151.445 94.9858 152.486 94.5295 153.525 94.2068C154.222 93.9887 156.368 94.0004 157.344 94.2236C157.906 94.3543 159.987 95.3836 160.427 95.7423C161.202 96.3836 162.516 98.0811 162.768 98.765C163.143 99.7883 163.414 100.892 163.678 101.96C164.398 104.866 165.141 107.871 167.999 109.282C169.849 110.194 172.023 110.34 173.959 109.681C175.902 109.024 177.539 107.586 178.452 105.736L185.853 90.7363C185.947 90.5463 186.023 90.3723 186.082 90.2025C186.106 90.1445 186.128 90.0836 186.155 90.0196ZM174.452 103.762C174.061 104.556 173.361 105.173 172.527 105.456C171.697 105.737 170.766 105.674 169.972 105.282C168.972 104.788 168.526 102.981 168.009 100.889C167.729 99.7632 167.413 98.4832 166.957 97.2309C166.345 95.5636 164.398 93.238 163.267 92.3044C162.531 91.6999 161.48 91.1439 160.92 90.8676C160.36 90.5913 159.279 90.0953 158.349 89.8798C156.925 89.5502 153.895 89.4205 152.198 89.9511C150.926 90.3478 149.721 90.8747 148.656 91.3391C146.679 92.2013 144.973 92.9463 143.973 92.4529C143.179 92.0612 142.562 91.3613 142.279 90.528C141.998 89.6976 142.062 88.7668 142.454 87.9728L149.815 73.0084C149.885 72.9163 149.949 72.8182 150.004 72.7162C151.71 69.5615 155.581 68.3383 158.815 69.934L178.814 79.8023C181.948 81.3487 183.359 85.0914 182.09 88.1829C182.031 88.3029 181.982 88.4278 181.992 88.4328C181.928 88.5608 181.89 88.6238 181.854 88.7626L174.452 103.762Z" fill="white"/>
<path d="M169.908 92.8129C171.013 93.3579 172.35 92.9043 172.895 91.7998C173.44 90.6952 172.986 89.358 171.882 88.813C170.777 88.268 169.44 88.7216 168.895 89.8261C168.35 90.9306 168.804 92.2679 169.908 92.8129Z" fill="white"/>
<path d="M175.879 90.7875C176.983 91.3325 178.321 90.8789 178.866 89.7744C179.411 88.6698 178.957 87.3326 177.852 86.7876C176.748 86.2426 175.411 86.6962 174.866 87.8007C174.321 88.9052 174.774 90.2425 175.879 90.7875Z" fill="white"/>
<path d="M173.854 84.8148C174.959 85.3598 176.296 84.9062 176.841 83.8017C177.386 82.6972 176.933 81.36 175.828 80.815C174.724 80.2699 173.386 80.7235 172.841 81.8281C172.296 82.9326 172.75 84.2698 173.854 84.8148Z" fill="white"/>
<path d="M167.881 86.8422C168.985 87.3872 170.323 86.9336 170.868 85.8291C171.413 84.7245 170.959 83.3873 169.854 82.8423C168.75 82.2973 167.413 82.7509 166.868 83.8554C166.323 84.9599 166.776 86.2971 167.881 86.8422Z" fill="white"/>
<path d="M154.894 82.9206C157.103 84.0107 159.778 83.1035 160.868 80.8945C161.958 78.6854 161.051 76.011 158.842 74.9209C156.633 73.8309 153.958 74.7381 152.868 76.9471C151.778 79.1562 152.685 81.8306 154.894 82.9206Z" fill="white"/>
<path d="M297.925 221.416C295.754 217.959 291.234 216.764 287.636 218.697L273.879 226.09C270.193 228.071 268.73 232.538 270.52 236.294C270.565 236.41 270.621 236.525 270.689 236.652L276.242 246.984C276.926 248.256 278.106 249.223 279.478 249.635C280.854 250.05 282.372 249.895 283.644 249.211C285.61 248.155 286.057 246.033 286.489 243.982C286.647 243.229 286.81 242.45 287.049 241.726C287.208 241.24 288.087 240.021 288.611 239.555C288.914 239.287 290.347 238.519 290.73 238.414C291.411 238.232 292.913 238.174 293.405 238.308C294.142 238.51 294.881 238.804 295.597 239.087C297.547 239.859 299.563 240.657 301.529 239.6C302.802 238.916 303.768 237.735 304.18 236.363C304.595 234.988 304.44 233.47 303.757 232.197L298.212 221.879C298.141 221.748 298.073 221.635 298 221.532C297.977 221.495 297.951 221.457 297.925 221.416ZM301.005 233.676C301.299 234.222 301.366 234.872 301.188 235.462C301.011 236.05 300.597 236.555 300.05 236.849C299.363 237.218 298.151 236.738 296.747 236.182C295.991 235.884 295.133 235.544 294.233 235.295C293.034 234.967 290.916 235.131 289.924 235.397C289.28 235.571 288.536 235.944 288.151 236.151C287.766 236.358 287.043 236.773 286.542 237.216C285.775 237.894 284.47 239.569 284.083 240.752C283.792 241.639 283.602 242.541 283.434 243.337C283.122 244.815 282.854 246.09 282.166 246.46C281.62 246.753 280.97 246.821 280.38 246.643C279.792 246.466 279.287 246.051 278.993 245.505L273.452 235.224C273.428 235.147 273.398 235.071 273.362 234.998C272.257 232.742 273.133 230.037 275.357 228.842L289.115 221.449C291.271 220.29 293.979 221.007 295.226 222.987C295.27 223.07 295.321 223.149 295.328 223.145C295.375 223.233 295.396 223.281 295.46 223.358L301.005 233.676Z" fill="white"/>
<path d="M292.914 231.817C293.674 231.409 293.959 230.462 293.55 229.702C293.142 228.942 292.195 228.657 291.435 229.065C290.676 229.474 290.391 230.421 290.799 231.18C291.207 231.94 292.154 232.225 292.914 231.817Z" fill="white"/>
<path d="M294.187 227.588C294.947 227.18 295.232 226.233 294.824 225.473C294.416 224.713 293.469 224.429 292.709 224.837C291.949 225.245 291.664 226.192 292.072 226.952C292.481 227.712 293.428 227.997 294.187 227.588Z" fill="white"/>
<path d="M289.957 226.315C290.717 225.907 291.002 224.96 290.593 224.2C290.185 223.44 289.238 223.155 288.478 223.563C287.718 223.972 287.434 224.919 287.842 225.678C288.25 226.438 289.197 226.723 289.957 226.315Z" fill="white"/>
<path d="M288.684 230.545C289.444 230.137 289.729 229.19 289.321 228.43C288.913 227.67 287.966 227.386 287.206 227.794C286.446 228.202 286.161 229.149 286.569 229.909C286.978 230.669 287.925 230.954 288.684 230.545Z" fill="white"/>
<path d="M281.17 236.358C282.689 235.542 283.259 233.648 282.443 232.128C281.626 230.609 279.732 230.039 278.212 230.855C276.693 231.672 276.123 233.566 276.94 235.085C277.756 236.605 279.65 237.175 281.17 236.358Z" fill="white"/>
<path d="M269.472 180.832C268.175 178.767 265.475 178.053 263.326 179.208L255.109 183.624C252.907 184.807 252.033 187.475 253.103 189.719C253.129 189.788 253.163 189.857 253.204 189.933L256.52 196.104C256.929 196.864 257.634 197.442 258.454 197.687C259.275 197.935 260.182 197.843 260.942 197.435C262.116 196.803 262.383 195.536 262.641 194.311C262.736 193.861 262.833 193.396 262.976 192.963C263.071 192.673 263.596 191.945 263.909 191.666C264.09 191.507 264.946 191.048 265.175 190.985C265.581 190.877 266.478 190.841 266.773 190.922C267.212 191.042 267.654 191.218 268.082 191.387C269.247 191.848 270.451 192.325 271.625 191.693C272.385 191.285 272.962 190.58 273.208 189.76C273.456 188.939 273.364 188.032 272.955 187.272L269.643 181.108C269.601 181.03 269.561 180.962 269.517 180.901C269.503 180.879 269.488 180.856 269.472 180.832ZM271.312 188.155C271.487 188.481 271.528 188.869 271.421 189.222C271.316 189.573 271.068 189.875 270.742 190.05C270.331 190.271 269.607 189.984 268.769 189.652C268.317 189.474 267.805 189.271 267.267 189.122C266.551 188.926 265.286 189.024 264.693 189.183C264.309 189.287 263.864 189.51 263.634 189.633C263.404 189.757 262.972 190.005 262.673 190.27C262.215 190.675 261.435 191.675 261.204 192.382C261.03 192.912 260.917 193.45 260.816 193.925C260.63 194.808 260.47 195.57 260.059 195.791C259.733 195.966 259.344 196.007 258.992 195.901C258.641 195.795 258.339 195.547 258.164 195.221L254.854 189.08C254.84 189.033 254.822 188.988 254.8 188.944C254.14 187.597 254.663 185.982 255.992 185.267L264.21 180.851C265.497 180.159 267.115 180.587 267.86 181.77C267.886 181.82 267.917 181.867 267.921 181.865C267.949 181.917 267.961 181.946 268 181.992L271.312 188.155Z" fill="white"/>
<path d="M266.479 187.044C266.933 186.8 267.103 186.234 266.86 185.78C266.616 185.326 266.05 185.156 265.596 185.4C265.142 185.644 264.972 186.21 265.216 186.664C265.46 187.117 266.026 187.288 266.479 187.044Z" fill="white"/>
<path d="M267.239 184.518C267.693 184.274 267.863 183.709 267.619 183.255C267.375 182.801 266.81 182.631 266.356 182.875C265.902 183.119 265.732 183.684 265.976 184.138C266.22 184.592 266.785 184.762 267.239 184.518Z" fill="white"/>
<path d="M264.713 183.759C265.167 183.515 265.337 182.949 265.093 182.495C264.849 182.041 264.283 181.871 263.83 182.115C263.376 182.359 263.206 182.925 263.449 183.378C263.693 183.832 264.259 184.002 264.713 183.759Z" fill="white"/>
<path d="M263.953 186.286C264.407 186.042 264.577 185.476 264.333 185.023C264.089 184.569 263.524 184.398 263.07 184.642C262.616 184.886 262.446 185.452 262.69 185.906C262.934 186.36 263.499 186.53 263.953 186.286Z" fill="white"/>
<path d="M259.464 189.757C260.371 189.27 260.712 188.138 260.224 187.231C259.736 186.323 258.605 185.982 257.697 186.47C256.79 186.958 256.449 188.089 256.937 188.997C257.425 189.905 258.556 190.245 259.464 189.757Z" fill="white"/>
</g>
</g>
<defs>
<filter id="filter0_d_687_2803" x="0" y="0" width="371" height="312" filterUnits="userSpaceOnUse" color-interpolation-filters="sRGB">
<feFlood flood-opacity="0" result="BackgroundImageFix"/>
<feColorMatrix in="SourceAlpha" type="matrix" values="0 0 0 0 0 0 0 0 0 0 0 0 0 0 0 0 0 0 127 0" result="hardAlpha"/>
<feOffset dx="4" dy="6"/>
<feGaussianBlur stdDeviation="10.5"/>
<feComposite in2="hardAlpha" operator="out"/>
<feColorMatrix type="matrix" values="0 0 0 0 0 0 0 0 0 0 0 0 0 0 0 0 0 0 0.5 0"/>
<feBlend mode="normal" in2="BackgroundImageFix" result="effect1_dropShadow_687_2803"/>
<feBlend mode="normal" in="SourceGraphic" in2="effect1_dropShadow_687_2803" result="shape"/>
</filter>
<filter id="filter1_d_687_2803" x="13" y="15" width="337" height="278" filterUnits="userSpaceOnUse" color-interpolation-filters="sRGB">
<feFlood flood-opacity="0" result="BackgroundImageFix"/>
<feColorMatrix in="SourceAlpha" type="matrix" values="0 0 0 0 0 0 0 0 0 0 0 0 0 0 0 0 0 0 127 0" result="hardAlpha"/>
<feOffset dy="4"/>
<feGaussianBlur stdDeviation="2"/>
<feComposite in2="hardAlpha" operator="out"/>
<feColorMatrix type="matrix" values="0 0 0 0 0 0 0 0 0 0 0 0 0 0 0 0 0 0 0.25 0"/>
<feBlend mode="normal" in2="BackgroundImageFix" result="effect1_dropShadow_687_2803"/>
<feBlend mode="normal" in="SourceGraphic" in2="effect1_dropShadow_687_2803" result="shape"/>
</filter>
<linearGradient id="paint0_linear_687_2803" x1="20.53" y1="25.7386" x2="356.338" y2="39.9022" gradientUnits="userSpaceOnUse">
<stop stop-color="#FF01C7"/>
<stop offset="1" stop-color="#0592FE"/>
</linearGradient>
</defs>
</svg>
