<svg width="246" height="68" viewBox="0 0 246 68" fill="none" xmlns="http://www.w3.org/2000/svg">
<g filter="url(#filter0_d_683_2117)">
<rect x="4" width="238" height="60" rx="10" fill="#4B218F"/>
<path d="M92.3026 23.4545V38H89.6889V25.642H83.3253V38H80.7116V23.4545H92.3026ZM100.099 38.2131C99.0337 38.2131 98.1104 37.9787 97.3292 37.5099C96.5479 37.0412 95.9419 36.3854 95.511 35.5426C95.0849 34.6998 94.8718 33.715 94.8718 32.5881C94.8718 31.4612 95.0849 30.474 95.511 29.6264C95.9419 28.7789 96.5479 28.1207 97.3292 27.652C98.1104 27.1832 99.0337 26.9489 100.099 26.9489C101.164 26.9489 102.088 27.1832 102.869 27.652C103.65 28.1207 104.254 28.7789 104.68 29.6264C105.111 30.474 105.326 31.4612 105.326 32.5881C105.326 33.715 105.111 34.6998 104.68 35.5426C104.254 36.3854 103.65 37.0412 102.869 37.5099C102.088 37.9787 101.164 38.2131 100.099 38.2131ZM100.113 36.1534C100.691 36.1534 101.174 35.9948 101.562 35.6776C101.95 35.3556 102.239 34.9247 102.429 34.3849C102.623 33.8452 102.72 33.2438 102.72 32.581C102.72 31.9134 102.623 31.3097 102.429 30.7699C102.239 30.2254 101.95 29.7921 101.562 29.4702C101.174 29.1482 100.691 28.9872 100.113 28.9872C99.5214 28.9872 99.029 29.1482 98.636 29.4702C98.2478 29.7921 97.9566 30.2254 97.7624 30.7699C97.573 31.3097 97.4783 31.9134 97.4783 32.581C97.4783 33.2438 97.573 33.8452 97.7624 34.3849C97.9566 34.9247 98.2478 35.3556 98.636 35.6776C99.029 35.9948 99.5214 36.1534 100.113 36.1534ZM107.509 38V27.0909H116.72V38H114.241V29.2003H109.966V38H107.509ZM124.123 38.2131C123.057 38.2131 122.134 37.9787 121.353 37.5099C120.571 37.0412 119.965 36.3854 119.534 35.5426C119.108 34.6998 118.895 33.715 118.895 32.5881C118.895 31.4612 119.108 30.474 119.534 29.6264C119.965 28.7789 120.571 28.1207 121.353 27.652C122.134 27.1832 123.057 26.9489 124.123 26.9489C125.188 26.9489 126.111 27.1832 126.892 27.652C127.674 28.1207 128.277 28.7789 128.703 29.6264C129.134 30.474 129.35 31.4612 129.35 32.5881C129.35 33.715 129.134 34.6998 128.703 35.5426C128.277 36.3854 127.674 37.0412 126.892 37.5099C126.111 37.9787 125.188 38.2131 124.123 38.2131ZM124.137 36.1534C124.714 36.1534 125.197 35.9948 125.586 35.6776C125.974 35.3556 126.263 34.9247 126.452 34.3849C126.646 33.8452 126.743 33.2438 126.743 32.581C126.743 31.9134 126.646 31.3097 126.452 30.7699C126.263 30.2254 125.974 29.7921 125.586 29.4702C125.197 29.1482 124.714 28.9872 124.137 28.9872C123.545 28.9872 123.052 29.1482 122.659 29.4702C122.271 29.7921 121.98 30.2254 121.786 30.7699C121.596 31.3097 121.502 31.9134 121.502 32.581C121.502 33.2438 121.596 33.8452 121.786 34.3849C121.98 34.9247 122.271 35.3556 122.659 35.6776C123.052 35.9948 123.545 36.1534 124.137 36.1534ZM131.532 38V27.0909H136.113C137.406 27.0909 138.426 27.349 139.174 27.8651C139.927 28.3812 140.303 29.1009 140.303 30.0241C140.303 30.6349 140.09 31.1345 139.664 31.5227C139.243 31.9062 138.667 32.1643 137.938 32.2969C138.511 32.3442 139.013 32.4886 139.444 32.7301C139.879 32.9716 140.22 33.2888 140.467 33.6818C140.713 34.0748 140.836 34.527 140.836 35.0384C140.836 35.6397 140.677 36.1629 140.36 36.608C140.048 37.0483 139.591 37.3916 138.989 37.6378C138.393 37.8793 137.668 38 136.816 38H131.532ZM133.94 35.9759H136.816C137.29 35.9759 137.661 35.8646 137.931 35.642C138.201 35.4148 138.336 35.107 138.336 34.7188C138.336 34.2689 138.201 33.9162 137.931 33.6605C137.661 33.4001 137.29 33.2699 136.816 33.2699H133.94V35.9759ZM133.94 31.608H136.163C136.513 31.608 136.814 31.5582 137.065 31.4588C137.316 31.3546 137.507 31.2102 137.64 31.0256C137.772 30.8362 137.839 30.6113 137.839 30.3509C137.839 29.9768 137.685 29.6832 137.377 29.4702C137.074 29.2571 136.653 29.1506 136.113 29.1506H133.94V31.608ZM150.451 31.4801V33.5895H144.641V31.4801H150.451ZM145.436 27.0909V38H142.958V27.0909H145.436ZM152.134 27.0909V38H149.662V27.0909H152.134ZM159.565 38.2131C158.471 38.2131 157.526 37.9858 156.731 37.5312C155.94 37.072 155.332 36.4233 154.906 35.5852C154.479 34.7424 154.266 33.7505 154.266 32.6094C154.266 31.4872 154.479 30.5024 154.906 29.6548C155.336 28.8026 155.938 28.1397 156.71 27.6662C157.481 27.188 158.388 26.9489 159.43 26.9489C160.102 26.9489 160.737 27.0578 161.333 27.2756C161.934 27.4886 162.465 27.8201 162.924 28.2699C163.388 28.7197 163.753 29.2926 164.018 29.9886C164.283 30.6799 164.415 31.5038 164.415 32.4602V33.2486H155.474V31.5156H161.951C161.946 31.0232 161.84 30.5852 161.631 30.2017C161.423 29.8134 161.132 29.508 160.758 29.2855C160.388 29.063 159.958 28.9517 159.465 28.9517C158.94 28.9517 158.478 29.0795 158.08 29.3352C157.683 29.5862 157.372 29.9176 157.15 30.3295C156.932 30.7367 156.821 31.1842 156.816 31.6719V33.1847C156.816 33.8191 156.932 34.3636 157.164 34.8182C157.396 35.268 157.72 35.6136 158.137 35.8551C158.554 36.0919 159.041 36.2102 159.6 36.2102C159.974 36.2102 160.313 36.1581 160.616 36.054C160.919 35.9451 161.182 35.7865 161.404 35.5781C161.627 35.3698 161.795 35.1117 161.908 34.804L164.309 35.0739C164.157 35.7083 163.869 36.2623 163.442 36.7358C163.021 37.2045 162.481 37.5691 161.823 37.8295C161.165 38.0852 160.412 38.2131 159.565 38.2131ZM174.083 31.4801V33.5895H168.274V31.4801H174.083ZM169.069 27.0909V38H166.591V27.0909H169.069ZM175.767 27.0909V38H173.295V27.0909H175.767ZM185.861 31.4801V33.5895H180.051V31.4801H185.861ZM180.847 27.0909V38H178.368V27.0909H180.847ZM187.544 27.0909V38H185.072V27.0909H187.544ZM196.594 38V29.179H194.265C193.673 29.179 193.218 29.3163 192.901 29.5909C192.584 29.8655 192.427 30.2064 192.432 30.6136C192.427 31.0208 192.577 31.357 192.88 31.6222C193.183 31.8873 193.616 32.0199 194.179 32.0199H197.404V33.8949H194.179C193.308 33.8949 192.555 33.7576 191.921 33.483C191.286 33.2083 190.799 32.8201 190.458 32.3182C190.117 31.8163 189.946 31.2292 189.946 30.5568C189.946 29.8561 190.119 29.2476 190.465 28.7315C190.815 28.2107 191.312 27.8082 191.956 27.5241C192.605 27.2353 193.374 27.0909 194.265 27.0909H199.002V38H196.594ZM189.549 38L192.596 32.4034H195.131L192.077 38H189.549Z" fill="white"/>
<path d="M43.4714 24.6667H37.707M37.707 24.6667H34.8249C33.2331 24.6667 31.9427 25.9725 31.9427 27.5833C31.9427 29.1941 33.2331 30.5 34.8249 30.5H37.707M37.707 24.6667V20.7778M37.707 24.6667V30.5M31.9427 36.3333H37.707M37.707 36.3333H40.5892C42.1809 36.3333 43.4714 35.0274 43.4714 33.4167C43.4714 31.8059 42.1809 30.5 40.5892 30.5H37.707M37.707 36.3333V40.2222M37.707 36.3333V30.5M55 30.5C55 40.1651 47.2577 48 37.707 48C28.1564 48 20.4141 40.1651 20.4141 30.5C20.4141 20.835 28.1564 13 37.707 13C47.2577 13 55 20.835 55 30.5Z" stroke="white" stroke-width="2" stroke-linecap="round" stroke-linejoin="round"/>
</g>
<defs>
<filter id="filter0_d_683_2117" x="0" y="0" width="246" height="68" filterUnits="userSpaceOnUse" color-interpolation-filters="sRGB">
<feFlood flood-opacity="0" result="BackgroundImageFix"/>
<feColorMatrix in="SourceAlpha" type="matrix" values="0 0 0 0 0 0 0 0 0 0 0 0 0 0 0 0 0 0 127 0" result="hardAlpha"/>
<feOffset dy="4"/>
<feGaussianBlur stdDeviation="2"/>
<feComposite in2="hardAlpha" operator="out"/>
<feColorMatrix type="matrix" values="0 0 0 0 0 0 0 0 0 0 0 0 0 0 0 0 0 0 0.25 0"/>
<feBlend mode="normal" in2="BackgroundImageFix" result="effect1_dropShadow_683_2117"/>
<feBlend mode="normal" in="SourceGraphic" in2="effect1_dropShadow_683_2117" result="shape"/>
</filter>
</defs>
</svg>
