<svg width="80" height="80" viewBox="0 0 80 80" fill="none" xmlns="http://www.w3.org/2000/svg">
<rect width="80" height="80" rx="10" fill="url(#paint0_linear_681_2148)"/>
<path d="M29.0672 25.2857C27.3389 25.2857 25.9426 26.6902 25.9426 28.4286C25.9426 30.167 27.3389 31.5714 29.0672 31.5714C30.7955 31.5714 32.1918 30.167 32.1918 28.4286C32.1918 26.6902 30.7955 25.2857 29.0672 25.2857ZM40.0032 25.2857C38.275 25.2857 36.8786 26.6902 36.8786 28.4286C36.8786 30.167 38.275 31.5714 40.0032 31.5714C41.7315 31.5714 43.1278 30.167 43.1278 28.4286C43.1278 26.6902 41.7315 25.2857 40.0032 25.2857ZM50.9393 25.2857C49.211 25.2857 47.8147 26.6902 47.8147 28.4286C47.8147 30.167 49.211 31.5714 50.9393 31.5714C52.6676 31.5714 54.0639 30.167 54.0639 28.4286C54.0639 26.6902 52.6676 25.2857 50.9393 25.2857ZM40.0032 8C26.1964 8 15.0065 17.1437 15.0065 28.4286C15.0065 33.1036 16.9496 37.3857 20.1718 40.833C18.7169 44.7027 15.69 47.983 15.6412 48.0223C14.9967 48.7098 14.821 49.7116 15.192 50.5759C15.563 51.4402 16.4125 52 17.3499 52C23.355 52 28.0907 49.4759 30.9322 47.4527C33.7541 48.3464 36.8005 48.8571 40.0032 48.8571C53.81 48.8571 65 39.7134 65 28.4286C65 17.1437 53.81 8 40.0032 8ZM40.0032 44.1429C37.3962 44.1429 34.8184 43.7402 32.348 42.9545L30.1315 42.2473L28.2274 43.6027C26.8311 44.5946 24.9173 45.7045 22.6129 46.4509C23.3257 45.2625 24.019 43.9268 24.556 42.5027L25.591 39.7429L23.5796 37.6018C21.8122 35.7062 19.6934 32.5732 19.6934 28.4286C19.6934 19.7661 28.8035 12.7143 40.0032 12.7143C51.203 12.7143 60.3131 19.7661 60.3131 28.4286C60.3131 37.0911 51.203 44.1429 40.0032 44.1429Z" fill="white"/>
<path d="M28.764 59.6H30.96V68H28.764V65.084C28.392 65.144 28.032 65.18 27.6 65.18C25.548 65.18 24.36 64.196 24.36 61.664V59.6H26.568V61.376C26.568 62.852 26.904 63.212 27.984 63.212C28.212 63.212 28.452 63.176 28.764 63.104V59.6ZM36.6513 59.516L40.5873 67.88V68H38.2233L37.7433 66.932H34.5753L34.1073 68H31.7433V67.88L35.6913 59.516H36.6513ZM36.1713 62.984L35.3793 65.036H36.9273L36.1713 62.984ZM46.2998 59.6V61.568H44.2718V68H42.0758V61.568H40.0478V59.6H46.2998ZM53.94 59.564H54.66V68H52.452V65.192L52.476 63.8L48.084 68.024H47.4V59.6H49.608V62.24L49.572 63.728L53.94 59.564Z" fill="white"/>
<defs>
<linearGradient id="paint0_linear_681_2148" x1="40" y1="0" x2="40" y2="80" gradientUnits="userSpaceOnUse">
<stop stop-color="#FF0D9E"/>
<stop offset="1" stop-color="#0094FF"/>
</linearGradient>
</defs>
</svg>
