<svg width="80" height="80" viewBox="0 0 80 80" fill="none" xmlns="http://www.w3.org/2000/svg">
<rect width="80" height="80" rx="10" fill="url(#paint0_linear_681_2146)"/>
<path d="M60 23H20V18H60V23ZM55 8H25V13H55V8ZM65 33V53C65 54.3261 64.4732 55.5979 63.5355 56.5355C62.5979 57.4732 61.3261 58 60 58H20C18.6751 57.9961 17.4056 57.4681 16.4688 56.5312C15.5319 55.5944 15.0039 54.3249 15 53V33C15.0039 31.6751 15.5319 30.4056 16.4687 29.4687C17.4056 28.5319 18.6751 28.0039 20 28H60C61.3249 28.0039 62.5944 28.5319 63.5313 29.4687C64.4681 30.4056 64.9961 31.6751 65 33ZM44.8184 45.605L50.625 40.6393L42.9779 39.9995L40 33L37.0221 39.9995L29.375 40.6393L35.1816 45.605L33.4334 53L40 49.0695L46.5666 53L44.8184 45.605Z" fill="white"/>
<path d="M21.456 63.6V65.568H19.428V72H17.232V65.568H15.204V63.6H21.456ZM26.3756 72.132C23.7956 72.132 21.9716 70.344 21.9716 67.8C21.9716 65.256 23.7956 63.468 26.3756 63.468C28.9556 63.468 30.7796 65.256 30.7796 67.8C30.7796 70.344 28.9556 72.132 26.3756 72.132ZM26.3756 70.044C27.6716 70.044 28.5356 69.144 28.5356 67.8C28.5356 66.456 27.6716 65.556 26.3756 65.556C25.0796 65.556 24.2156 66.444 24.2156 67.8C24.2156 69.144 25.0796 70.044 26.3756 70.044ZM37.6985 67.644C38.4065 67.992 38.8745 68.712 38.8745 69.552C38.8745 71.016 37.7465 72 36.0905 72H32.1305V63.6H35.6705C37.3745 63.6 38.5145 64.584 38.5145 66.048C38.5145 66.672 38.2385 67.26 37.6985 67.644ZM36.2825 66.192C36.2825 65.736 35.9825 65.472 35.4785 65.472H34.3025V66.912H35.4785C35.9825 66.912 36.2825 66.648 36.2825 66.192ZM35.8025 70.104C36.3305 70.104 36.6425 69.84 36.6425 69.384C36.6425 68.928 36.3305 68.664 35.8025 68.664H34.3025V70.104H35.8025ZM44.0458 63.516L47.9818 71.88V72H45.6178L45.1378 70.932H41.9698L41.5018 72H39.1378V71.88L43.0858 63.516H44.0458ZM43.5658 66.984L42.7738 69.036H44.3218L43.5658 66.984ZM52.4434 63.6C54.3514 63.6 55.5874 64.812 55.5874 66.636C55.5874 68.472 54.3154 69.684 52.4434 69.684H50.9554V72H48.7594V63.6H52.4434ZM52.2274 67.788C52.9354 67.788 53.3554 67.356 53.3554 66.636C53.3554 65.916 52.9354 65.508 52.2274 65.508H50.9554V67.788H52.2274ZM63.2916 63.564H64.0116V72H61.8036V69.192L61.8276 67.8L57.4356 72.024H56.7516V63.6H58.9596V66.24L58.9236 67.728L63.2916 63.564Z" fill="white"/>
<defs>
<linearGradient id="paint0_linear_681_2146" x1="40" y1="0" x2="40" y2="80" gradientUnits="userSpaceOnUse">
<stop stop-color="#FF0D9E"/>
<stop offset="1" stop-color="#0094FF"/>
</linearGradient>
</defs>
</svg>
