<svg width="80" height="80" viewBox="0 0 80 80" fill="none" xmlns="http://www.w3.org/2000/svg">
<rect width="80" height="80" rx="10" fill="url(#paint0_linear_681_2150)"/>
<path d="M39.6875 30.5C45.9014 30.5 50.9375 25.4639 50.9375 19.25C50.9375 13.0361 45.9014 8 39.6875 8C33.4736 8 28.4375 13.0361 28.4375 19.25C28.4375 25.4639 33.4736 30.5 39.6875 30.5ZM47.5625 33.3125H46.0947C44.1436 34.209 41.9727 34.7188 39.6875 34.7188C37.4023 34.7188 35.2402 34.209 33.2803 33.3125H31.8125C25.291 33.3125 20 38.6035 20 45.125V48.7812C20 51.1104 21.8896 53 24.2188 53H55.1562C57.4854 53 59.375 51.1104 59.375 48.7812V45.125C59.375 38.6035 54.084 33.3125 47.5625 33.3125Z" fill="white"/>
<path d="M15.788 61.516L19.724 69.88V70H17.36L16.88 68.932H13.712L13.244 70H10.88V69.88L14.828 61.516H15.788ZM15.308 64.984L14.516 67.036H16.064L15.308 64.984ZM25.6496 65.872L27.6296 69.88V70H25.2296L23.6816 66.64C23.4656 66.664 23.2496 66.676 23.0216 66.676H22.6976V70H20.5016V61.6H22.6976V64.732H22.9136C24.4136 64.732 24.8456 63.652 24.8456 61.6H27.0416C27.0416 63.556 26.6456 65.02 25.6496 65.872ZM33.8878 65.872L35.8678 69.88V70H33.4678L31.9198 66.64C31.7038 66.664 31.4878 66.676 31.2598 66.676H30.9358V70H28.7398V61.6H30.9358V64.732H31.1518C32.6518 64.732 33.0838 63.652 33.0838 61.6H35.2798C35.2798 63.556 34.8838 65.02 33.8878 65.872ZM40.8661 61.516L44.8021 69.88V70H42.4381L41.9581 68.932H38.7901L38.3221 70H35.9581V69.88L39.9061 61.516H40.8661ZM40.3861 64.984L39.5941 67.036H41.1421L40.3861 64.984ZM50.1905 61.6H52.5545V61.696L49.6625 68.02C49.0505 69.376 48.3425 70.132 46.6865 70.132C46.1585 70.132 45.7385 70.072 45.1385 69.868L45.5945 68.14C45.8945 68.248 46.0985 68.296 46.4585 68.296C46.9025 68.296 47.2505 68.2 47.5385 67.6L47.7425 67.168L44.6225 61.696V61.6H47.1065L48.7625 64.828H48.8345L50.1905 61.6ZM58.4124 61.6H60.6084V70H58.4124V66.664H55.5804V70H53.3844V61.6H55.5804V64.696H58.4124V61.6ZM67.9638 61.6V63.568H65.9358V70H63.7398V63.568H61.7118V61.6H67.9638Z" fill="white"/>
<defs>
<linearGradient id="paint0_linear_681_2150" x1="40" y1="0" x2="40" y2="80" gradientUnits="userSpaceOnUse">
<stop stop-color="#FE20CD"/>
<stop offset="1" stop-color="#0094FF"/>
</linearGradient>
</defs>
</svg>
