<svg width="30" height="30" viewBox="0 0 30 30" fill="none" xmlns="http://www.w3.org/2000/svg">
<path d="M21.9977 19.3467H20.6075L20.1147 18.8719C22.2264 16.4097 23.3174 13.0506 22.7191 9.48045C21.8921 4.59129 17.8095 0.68699 12.8823 0.0890348C5.43865 -0.825485 -0.825969 5.43546 0.0890871 12.8747C0.687393 17.7991 4.59398 21.8792 9.48601 22.7058C13.0583 23.3038 16.4193 22.2134 18.8829 20.103L19.3581 20.5954V21.9848L26.8369 29.4592C27.5584 30.1803 28.7374 30.1803 29.4589 29.4592C30.1804 28.7381 30.1804 27.5598 29.4589 26.8387L21.9977 19.3467ZM11.4393 19.3467C7.05759 19.3467 3.52055 15.8117 3.52055 11.4326C3.52055 7.05346 7.05759 3.51849 11.4393 3.51849C15.821 3.51849 19.3581 7.05346 19.3581 11.4326C19.3581 15.8117 15.821 19.3467 11.4393 19.3467Z" fill="white"/>
</svg>
