<svg width="80" height="80" viewBox="0 0 80 80" fill="none" xmlns="http://www.w3.org/2000/svg">
<rect width="80" height="80" rx="10" fill="url(#paint0_linear_681_2149)"/>
<path d="M51.6413 40.2445H49.3256L48.5049 39.4531C52.0223 35.3495 53.8396 29.751 52.843 23.8008C51.4654 15.6521 44.6651 9.14498 36.4579 8.14839C24.0591 6.62419 13.6242 17.0591 15.1484 29.4579C16.145 37.6651 22.6521 44.4654 30.8008 45.843C36.751 46.8396 42.3495 45.0223 46.4531 41.5049L47.2445 42.3256V44.6413L59.7019 57.0987C60.9037 58.3004 62.8676 58.3004 64.0694 57.0987C65.2711 55.8969 65.2711 53.933 64.0694 52.7312L51.6413 40.2445ZM34.0543 40.2445C26.7558 40.2445 20.8641 34.3529 20.8641 27.0543C20.8641 19.7558 26.7558 13.8641 34.0543 13.8641C41.3529 13.8641 47.2445 19.7558 47.2445 27.0543C47.2445 34.3529 41.3529 40.2445 34.0543 40.2445Z" fill="white"/>
<path d="M16.9 71V62.6H23.884V71H21.688V64.58H19.096V71H16.9ZM29.6491 71.132C27.0691 71.132 25.2451 69.344 25.2451 66.8C25.2451 64.256 27.0691 62.468 29.6491 62.468C32.2291 62.468 34.0531 64.256 34.0531 66.8C34.0531 69.344 32.2291 71.132 29.6491 71.132ZM29.6491 69.044C30.9451 69.044 31.8091 68.144 31.8091 66.8C31.8091 65.456 30.9451 64.556 29.6491 64.556C28.3531 64.556 27.4891 65.444 27.4891 66.8C27.4891 68.144 28.3531 69.044 29.6491 69.044ZM43.8519 62.6H46.0479V71H35.4039V62.6H37.5999V69.02H39.6279V62.6H41.8239V69.02H43.8519V62.6ZM52.5772 62.6H54.9412V62.696L52.0492 69.02C51.4372 70.376 50.7292 71.132 49.0732 71.132C48.5452 71.132 48.1252 71.072 47.5252 70.868L47.9812 69.14C48.2812 69.248 48.4852 69.296 48.8452 69.296C49.2892 69.296 49.6372 69.2 49.9252 68.6L50.1292 68.168L47.0092 62.696V62.6H49.4932L51.1492 65.828H51.2212L52.5772 62.6ZM60.9191 66.872L62.8991 70.88V71H60.4991L58.9511 67.64C58.7351 67.664 58.5191 67.676 58.2911 67.676H57.9671V71H55.7711V62.6H57.9671V65.732H58.1831C59.6831 65.732 60.1151 64.652 60.1151 62.6H62.3111C62.3111 64.556 61.9151 66.02 60.9191 66.872Z" fill="white"/>
<defs>
<linearGradient id="paint0_linear_681_2149" x1="40" y1="0" x2="40" y2="80" gradientUnits="userSpaceOnUse">
<stop stop-color="#FF00C7"/>
<stop offset="1" stop-color="#0094FF"/>
</linearGradient>
</defs>
</svg>
