<svg width="269" height="68" viewBox="0 0 269 68" fill="none" xmlns="http://www.w3.org/2000/svg">
<g filter="url(#filter0_d_683_2106)">
<rect x="4" width="261" height="60" rx="10" fill="#4B218F"/>
<path d="M97.4347 37V22.4545H103.003C104.054 22.4545 104.928 22.6203 105.624 22.9517C106.324 23.2784 106.848 23.7259 107.193 24.294C107.544 24.8622 107.719 25.5062 107.719 26.2259C107.719 26.8177 107.605 27.3243 107.378 27.7457C107.151 28.1624 106.845 28.5009 106.462 28.7614C106.078 29.0218 105.65 29.2088 105.176 29.3224V29.4645C105.692 29.4929 106.187 29.6515 106.661 29.9403C107.139 30.2244 107.529 30.6269 107.832 31.1477C108.135 31.6686 108.287 32.2983 108.287 33.0369C108.287 33.7898 108.105 34.4669 107.74 35.0682C107.375 35.6648 106.826 36.1359 106.092 36.4815C105.358 36.8272 104.435 37 103.322 37H97.4347ZM100.07 34.7983H102.903C103.86 34.7983 104.549 34.616 104.97 34.2514C105.396 33.8821 105.609 33.4086 105.609 32.831C105.609 32.4001 105.503 32.0118 105.29 31.6662C105.077 31.3158 104.774 31.0412 104.381 30.8423C103.988 30.6387 103.519 30.5369 102.974 30.5369H100.07V34.7983ZM100.07 28.6406H102.676C103.131 28.6406 103.54 28.5578 103.905 28.392C104.269 28.2216 104.556 27.9825 104.764 27.6747C104.977 27.3622 105.084 26.9929 105.084 26.5668C105.084 26.0033 104.885 25.5393 104.487 25.1747C104.094 24.8101 103.509 24.6278 102.733 24.6278H100.07V28.6406ZM112.944 33.5199L117.312 26.0909H119.954V37H117.468V29.5639L113.115 37H110.466V26.0909H112.944V33.5199ZM122.594 37V26.0909H131.806V37H129.327V28.2003H125.052V37H122.594ZM133.697 37L133.683 34.8835H134.059C134.343 34.8835 134.583 34.8196 134.777 34.6918C134.971 34.5639 135.132 34.3509 135.26 34.0526C135.387 33.7495 135.487 33.3423 135.558 32.831C135.629 32.3196 135.679 31.6828 135.707 30.9205L135.899 26.0909H143.853V37H141.368V28.2003H138.235L138.065 31.7159C138.022 32.625 137.921 33.4134 137.76 34.081C137.603 34.7438 137.381 35.2907 137.092 35.7216C136.808 36.1525 136.45 36.4744 136.02 36.6875C135.589 36.8958 135.08 37 134.493 37H133.697ZM149.581 37.2202C148.89 37.2202 148.267 37.0971 147.713 36.8509C147.164 36.5999 146.729 36.2306 146.407 35.7429C146.089 35.2552 145.931 34.6539 145.931 33.9389C145.931 33.3234 146.044 32.8144 146.272 32.4119C146.499 32.0095 146.809 31.6875 147.202 31.446C147.595 31.2045 148.038 31.0223 148.53 30.8991C149.027 30.7713 149.541 30.679 150.071 30.6222C150.711 30.5559 151.229 30.4967 151.627 30.4446C152.025 30.3878 152.313 30.3026 152.493 30.1889C152.678 30.0705 152.77 29.8883 152.77 29.642V29.5994C152.77 29.0644 152.612 28.6501 152.294 28.3565C151.977 28.063 151.52 27.9162 150.924 27.9162C150.294 27.9162 149.794 28.0535 149.425 28.3281C149.06 28.6027 148.814 28.9271 148.686 29.3011L146.286 28.9602C146.475 28.2973 146.788 27.7434 147.223 27.2983C147.659 26.8485 148.192 26.5123 148.821 26.2898C149.451 26.0625 150.147 25.9489 150.909 25.9489C151.435 25.9489 151.958 26.0104 152.479 26.1335C153 26.2566 153.476 26.4602 153.907 26.7443C154.337 27.0237 154.683 27.4048 154.944 27.8878C155.209 28.3707 155.341 28.9744 155.341 29.6989V37H152.87V35.5014H152.784C152.628 35.8045 152.408 36.0885 152.124 36.3537C151.845 36.6141 151.492 36.8248 151.066 36.9858C150.644 37.142 150.15 37.2202 149.581 37.2202ZM150.249 35.331C150.765 35.331 151.212 35.2292 151.591 35.0256C151.97 34.8172 152.261 34.5426 152.465 34.2017C152.673 33.8608 152.777 33.4891 152.777 33.0866V31.8011C152.697 31.8674 152.56 31.929 152.365 31.9858C152.176 32.0426 151.963 32.0923 151.726 32.1349C151.489 32.1776 151.255 32.2154 151.023 32.2486C150.791 32.2817 150.59 32.3101 150.419 32.3338C150.036 32.3859 149.693 32.4711 149.39 32.5895C149.087 32.7079 148.847 32.8736 148.672 33.0866C148.497 33.295 148.409 33.5649 148.409 33.8963C148.409 34.3698 148.582 34.7273 148.928 34.9688C149.274 35.2102 149.714 35.331 150.249 35.331ZM156.705 28.2003V26.0909H166.25V28.2003H162.721V37H160.235V28.2003H156.705ZM170.988 37.2202C170.296 37.2202 169.674 37.0971 169.12 36.8509C168.57 36.5999 168.135 36.2306 167.813 35.7429C167.496 35.2552 167.337 34.6539 167.337 33.9389C167.337 33.3234 167.451 32.8144 167.678 32.4119C167.905 32.0095 168.215 31.6875 168.608 31.446C169.001 31.2045 169.444 31.0223 169.936 30.8991C170.434 30.7713 170.947 30.679 171.478 30.6222C172.117 30.5559 172.635 30.4967 173.033 30.4446C173.431 30.3878 173.72 30.3026 173.9 30.1889C174.084 30.0705 174.176 29.8883 174.176 29.642V29.5994C174.176 29.0644 174.018 28.6501 173.701 28.3565C173.383 28.063 172.926 27.9162 172.33 27.9162C171.7 27.9162 171.201 28.0535 170.831 28.3281C170.467 28.6027 170.221 28.9271 170.093 29.3011L167.692 28.9602C167.882 28.2973 168.194 27.7434 168.63 27.2983C169.065 26.8485 169.598 26.5123 170.228 26.2898C170.857 26.0625 171.553 25.9489 172.316 25.9489C172.841 25.9489 173.364 26.0104 173.885 26.1335C174.406 26.2566 174.882 26.4602 175.313 26.7443C175.744 27.0237 176.089 27.4048 176.35 27.8878C176.615 28.3707 176.748 28.9744 176.748 29.6989V37H174.276V35.5014H174.191C174.034 35.8045 173.814 36.0885 173.53 36.3537C173.251 36.6141 172.898 36.8248 172.472 36.9858C172.051 37.142 171.556 37.2202 170.988 37.2202ZM171.655 35.331C172.171 35.331 172.619 35.2292 172.998 35.0256C173.376 34.8172 173.667 34.5426 173.871 34.2017C174.079 33.8608 174.184 33.4891 174.184 33.0866V31.8011C174.103 31.8674 173.966 31.929 173.772 31.9858C173.582 32.0426 173.369 32.0923 173.132 32.1349C172.896 32.1776 172.661 32.2154 172.429 32.2486C172.197 32.2817 171.996 32.3101 171.826 32.3338C171.442 32.3859 171.099 32.4711 170.796 32.5895C170.493 32.7079 170.254 32.8736 170.078 33.0866C169.903 33.295 169.816 33.5649 169.816 33.8963C169.816 34.3698 169.989 34.7273 170.334 34.9688C170.68 35.2102 171.12 35.331 171.655 35.331Z" fill="white"/>
</g>
<defs>
<filter id="filter0_d_683_2106" x="0" y="0" width="269" height="68" filterUnits="userSpaceOnUse" color-interpolation-filters="sRGB">
<feFlood flood-opacity="0" result="BackgroundImageFix"/>
<feColorMatrix in="SourceAlpha" type="matrix" values="0 0 0 0 0 0 0 0 0 0 0 0 0 0 0 0 0 0 127 0" result="hardAlpha"/>
<feOffset dy="4"/>
<feGaussianBlur stdDeviation="2"/>
<feComposite in2="hardAlpha" operator="out"/>
<feColorMatrix type="matrix" values="0 0 0 0 0 0 0 0 0 0 0 0 0 0 0 0 0 0 0.25 0"/>
<feBlend mode="normal" in2="BackgroundImageFix" result="effect1_dropShadow_683_2106"/>
<feBlend mode="normal" in="SourceGraphic" in2="effect1_dropShadow_683_2106" result="shape"/>
</filter>
</defs>
</svg>
