<svg width="595" height="105" viewBox="0 0 595 105" fill="none" xmlns="http://www.w3.org/2000/svg">
<g filter="url(#filter0_d_690_2193)">
<rect x="18" y="16" width="551" height="61" rx="8" fill="url(#paint0_linear_690_2193)"/>
<path d="M203.858 44.014C205.156 44.652 206.014 45.972 206.014 47.512C206.014 50.196 203.946 52 200.91 52H193.65V36.6H200.14C203.264 36.6 205.354 38.404 205.354 41.088C205.354 42.232 204.848 43.31 203.858 44.014ZM201.262 41.352C201.262 40.516 200.712 40.032 199.788 40.032H197.632V42.672H199.788C200.712 42.672 201.262 42.188 201.262 41.352ZM200.382 48.524C201.35 48.524 201.922 48.04 201.922 47.204C201.922 46.368 201.35 45.884 200.382 45.884H197.632V48.524H200.382ZM220.507 36.534H221.827V52H217.779V46.852L217.823 44.3L209.771 52.044H208.517V36.6H212.565V41.44L212.499 44.168L220.507 36.534ZM235.333 44.014C236.631 44.652 237.489 45.972 237.489 47.512C237.489 50.196 235.421 52 232.385 52H225.125V36.6H231.615C234.739 36.6 236.829 38.404 236.829 41.088C236.829 42.232 236.323 43.31 235.333 44.014ZM232.737 41.352C232.737 40.516 232.187 40.032 231.263 40.032H229.107V42.672H231.263C232.187 42.672 232.737 42.188 232.737 41.352ZM231.857 48.524C232.825 48.524 233.397 48.04 233.397 47.204C233.397 46.368 232.825 45.884 231.857 45.884H229.107V48.524H231.857ZM243.996 48.392H249.804V52H239.992V36.6H249.606V40.186H243.996V42.474H249.166V45.994H243.996V48.392ZM259.383 52.242C254.851 52.242 251.639 48.964 251.639 44.3C251.639 39.636 254.851 36.358 259.383 36.358C263.453 36.358 266.071 38.69 266.885 42.188H262.881C262.265 40.934 261.077 40.186 259.537 40.186C257.271 40.186 255.753 41.814 255.753 44.3C255.753 46.764 257.271 48.414 259.537 48.414C261.209 48.414 262.463 47.534 263.013 46.126H266.973C266.269 49.8 263.585 52.242 259.383 52.242ZM279.332 36.6V40.208H275.614V52H271.588V40.208H267.87V36.6H279.332ZM293.339 36.534H294.659V52H290.611V46.852L290.655 44.3L282.603 52.044H281.349V36.6H285.397V41.44L285.331 44.168L293.339 36.534ZM312.658 44.432L316.288 51.78V52H311.888L309.05 45.84C308.654 45.884 308.258 45.906 307.84 45.906H307.246V52H303.22V36.6H307.246V42.342H307.642C310.392 42.342 311.184 40.362 311.184 36.6H315.21C315.21 40.186 314.484 42.87 312.658 44.432ZM325.025 52.242C320.295 52.242 316.951 48.964 316.951 44.3C316.951 39.636 320.295 36.358 325.025 36.358C329.755 36.358 333.099 39.636 333.099 44.3C333.099 48.964 329.755 52.242 325.025 52.242ZM325.025 48.414C327.401 48.414 328.985 46.764 328.985 44.3C328.985 41.836 327.401 40.186 325.025 40.186C322.649 40.186 321.065 41.814 321.065 44.3C321.065 46.764 322.649 48.414 325.025 48.414ZM351.064 36.6H355.09V52H335.576V36.6H339.602V48.37H343.32V36.6H347.346V48.37H351.064V36.6ZM368.578 36.6V40.208H364.86V52H360.834V40.208H357.116V36.6H368.578ZM382.585 36.534H383.905V52H379.857V46.852L379.901 44.3L371.849 52.044H370.595V36.6H374.643V41.44L374.577 44.168L382.585 36.534Z" fill="white"/>
</g>
<defs>
<filter id="filter0_d_690_2193" x="0.4" y="0.4" width="594.2" height="104.2" filterUnits="userSpaceOnUse" color-interpolation-filters="sRGB">
<feFlood flood-opacity="0" result="BackgroundImageFix"/>
<feColorMatrix in="SourceAlpha" type="matrix" values="0 0 0 0 0 0 0 0 0 0 0 0 0 0 0 0 0 0 127 0" result="hardAlpha"/>
<feOffset dx="4" dy="6"/>
<feGaussianBlur stdDeviation="10.8"/>
<feComposite in2="hardAlpha" operator="out"/>
<feColorMatrix type="matrix" values="0 0 0 0 0 0 0 0 0 0 0 0 0 0 0 0 0 0 0.49 0"/>
<feBlend mode="normal" in2="BackgroundImageFix" result="effect1_dropShadow_690_2193"/>
<feBlend mode="normal" in="SourceGraphic" in2="effect1_dropShadow_690_2193" result="shape"/>
</filter>
<linearGradient id="paint0_linear_690_2193" x1="25.4326" y1="24.3726" x2="570.092" y2="60.5733" gradientUnits="userSpaceOnUse">
<stop stop-color="#FF00C7"/>
<stop offset="1" stop-color="#0094FF"/>
</linearGradient>
</defs>
</svg>
