<svg width="80" height="80" viewBox="0 0 80 80" fill="none" xmlns="http://www.w3.org/2000/svg">
<rect width="80" height="80" rx="10" fill="url(#paint0_linear_681_2151)"/>
<path d="M33.75 28.3125C33.75 26.5869 32.3506 25.1875 30.625 25.1875H29.0625C25.6104 25.1875 22.8125 27.9854 22.8125 31.4375V36.125C22.8125 39.5771 25.6104 42.375 29.0625 42.375H30.625C32.3506 42.375 33.75 40.9756 33.75 39.25V28.3125ZM50.9375 42.375C54.3896 42.375 57.1875 39.5771 57.1875 36.125V31.4375C57.1875 27.9854 54.3896 25.1875 50.9375 25.1875H49.375C47.6494 25.1875 46.25 26.5869 46.25 28.3125V39.25C46.25 40.9756 47.6494 42.375 49.375 42.375H50.9375ZM40 8C26.0527 8 15.4473 19.6045 15 33V34.5625C15 35.4258 15.6992 36.125 16.5625 36.125H18.125C18.9883 36.125 19.6875 35.4258 19.6875 34.5625V33C19.6875 21.7998 28.7998 12.6875 40 12.6875C51.2002 12.6875 60.3125 21.7998 60.3125 33H60.3008C60.3086 33.2373 60.3125 49.1836 60.3125 49.1836C60.3125 51.4639 58.4639 53.3125 56.1836 53.3125H46.25C46.25 50.7236 44.1514 48.625 41.5625 48.625H38.4375C35.8486 48.625 33.75 50.7236 33.75 53.3125C33.75 55.9014 35.8486 58 38.4375 58H56.1836C61.0527 58 65 54.0527 65 49.1836V33C64.5527 19.6045 53.9473 8 40 8Z" fill="white"/>
<path d="M4.9 72V63.6H11.884V72H9.688V65.58H7.096V72H4.9ZM13.6891 72V63.6H15.8851V72H13.6891ZM24.7892 70.14H25.6292V73.812H23.5892V72H19.1732V73.812H17.1332V70.14H17.9012C18.1772 69.78 18.3092 69.372 18.3932 68.652L18.9932 63.6H24.7892V70.14ZM20.9012 65.484L20.5652 68.784C20.5172 69.288 20.3972 69.756 20.1812 70.212H22.6052V65.484H20.9012ZM32.4873 63.6V65.568H30.4593V72H28.2633V65.568H26.2353V63.6H32.4873ZM37.2715 63.6C39.1795 63.6 40.4155 64.812 40.4155 66.636C40.4155 68.472 39.1435 69.684 37.2715 69.684H35.7835V72H33.5875V63.6H37.2715ZM37.0555 67.788C37.7635 67.788 38.1835 67.356 38.1835 66.636C38.1835 65.916 37.7635 65.508 37.0555 65.508H35.7835V67.788H37.0555ZM48.1197 63.564H48.8397V72H46.6317V69.192L46.6557 67.8L42.2637 72.024H41.5797V63.6H43.7877V66.24L43.7517 67.728L48.1197 63.564ZM58.4263 63.576H59.3143V72H57.1183V69.672L57.1663 67.812L55.0543 69.96H54.8983L52.7983 67.812L52.8343 69.672V72H50.6383V63.576H51.5263L54.9823 67.212L58.4263 63.576ZM66.2628 67.872L68.2428 71.88V72H65.8428L64.2948 68.64C64.0788 68.664 63.8628 68.676 63.6348 68.676H63.3108V72H61.1148V63.6H63.3108V66.732H63.5268C65.0268 66.732 65.4588 65.652 65.4588 63.6H67.6548C67.6548 65.556 67.2588 67.02 66.2628 67.872ZM73.2411 63.516L77.1771 71.88V72H74.8131L74.3331 70.932H71.1651L70.6971 72H68.3331V71.88L72.2811 63.516H73.2411ZM72.7611 66.984L71.9691 69.036H73.5171L72.7611 66.984Z" fill="white"/>
<defs>
<linearGradient id="paint0_linear_681_2151" x1="40" y1="0" x2="40" y2="80" gradientUnits="userSpaceOnUse">
<stop stop-color="#FF00C7"/>
<stop offset="1" stop-color="#0094FF"/>
</linearGradient>
</defs>
</svg>
